<svg xmlns="http://www.w3.org/2000/svg" viewBox="0 0 182.48 182.48"><defs><style>.cls-1{fill:#fff;stroke:#8fc640;stroke-miterlimit:10;stroke-width:4.59px;}.cls-2{fill:#8fc640;}</style></defs><g id="Layer_2" data-name="Layer 2"><g id="Layer_1-2" data-name="Layer 1"><circle class="cls-1" cx="91.24" cy="91.24" r="88.94"/><path class="cls-2" d="M99.75,100.3q14.32,0,28.65,0a1.22,1.22,0,0,1,1.3.74,4.41,4.41,0,0,0,5,2.18,4.56,4.56,0,0,0,0-8.85,4.39,4.39,0,0,0-5,2.2,1.21,1.21,0,0,1-1.32.72H101.05c-2.28,0-2.25,0-2.27-2.29,0-.66.23-.75.81-.74,4.22,0,8.44,0,12.66,0a1.8,1.8,0,0,0,1.4-.56c2.63-2.68,5.3-5.31,7.94-8a1.61,1.61,0,0,1,1.3-.57c1.89,0,3.78,0,5.67,0a1,1,0,0,1,1.07.64,4.44,4.44,0,0,0,5,2.29,4.55,4.55,0,0,0,0-8.85,4.45,4.45,0,0,0-5.07,2.33.94.94,0,0,1-1,.59c-2.33,0-4.66,0-7,0a1.63,1.63,0,0,0-1.31.54c-2.66,2.69-5.34,5.36-8,8a1.26,1.26,0,0,1-.94.53q-6,0-12,0c-.4,0-.55-.08-.55-.52,0-3.33,0-6.66,0-10.13l1,.55a19,19,0,0,0,12.92,2.27A19.67,19.67,0,1,0,98.33,47.78c-.33.22-.52.4-.86-.09a7.51,7.51,0,0,0-6.59-3.35c-12.89,0-25.78,0-38.66,0a7.5,7.5,0,0,0-7.87,7.89q0,39,0,78a7.52,7.52,0,0,0,7.86,7.9H90.87a7.52,7.52,0,0,0,7.93-7.93q0-11.47,0-23c0-.68.12-.89.85-.88,3.75,0,7.5,0,11.25,0a1.84,1.84,0,0,1,1.48.59c2.59,2.63,5.22,5.22,7.8,7.85a2,2,0,0,0,1.64.66c2.24,0,4.47,0,6.71,0a1,1,0,0,1,1.1.6,4.45,4.45,0,0,0,5,2.34,4.57,4.57,0,0,0,0-8.89,4.42,4.42,0,0,0-5,2.32,1,1,0,0,1-1.1.62c-1.89,0-3.78,0-5.67,0a1.53,1.53,0,0,1-1.22-.51c-2.66-2.69-5.35-5.35-8-8a1.69,1.69,0,0,0-1.31-.55c-3.81,0-7.62,0-11.43,0-2.09,0-2,0-2.11-2.09C98.76,100.47,99,100.3,99.75,100.3Zm33.82-3a1.51,1.51,0,1,1-1.48,1.54A1.58,1.58,0,0,1,133.57,97.3Zm0-15.12a1.51,1.51,0,1,1,.05,3,1.6,1.6,0,0,1-1.53-1.48A1.58,1.58,0,0,1,133.57,82.18Zm.05,30.25a1.51,1.51,0,1,1-1.53,1.48A1.58,1.58,0,0,1,133.62,112.43ZM111.29,79.62C110,81,108.8,81,107.5,79.63a12.77,12.77,0,0,1-2.61-5h9A12.72,12.72,0,0,1,111.29,79.62Zm2.64-8c-3,0-6.05,0-9.07,0-.58,0-.83-.16-.92-.73-.25-1.61-.4-3.24-.54-4.87,0-.52.24-.47.56-.47h5.48c1.76,0,3.53,0,5.29,0,.51,0,.68.08.64.67-.13,1.53-.29,3.06-.51,4.59C114.78,71.34,114.61,71.61,113.93,71.6Zm1.18,8A23.49,23.49,0,0,0,117,75a.53.53,0,0,1,.61-.43c1.47,0,2.93,0,4.56,0A16.84,16.84,0,0,1,115.11,79.6Zm10.75-13.37a17.76,17.76,0,0,1-1.48,4.93.62.62,0,0,1-.63.43c-1.79,0-3.59,0-5.38,0-.45,0-.54-.17-.46-.55a34.33,34.33,0,0,0,.53-5.05c0-.49.27-.46.6-.46h3.12c1,0,2,0,3,0C125.74,65.49,126,65.61,125.86,66.23Zm-2.28-9.78a.75.75,0,0,1,.82.45,17.62,17.62,0,0,1,1.46,4.93c.08.52,0,.71-.61.69-1-.05-2.08,0-3.11,0s-2.08,0-3.12,0c-.46,0-.56-.15-.58-.59a33,33,0,0,0-.53-4.86c-.1-.5.08-.64.58-.63C120.18,56.47,121.88,56.46,123.58,56.45Zm-1.41-3h-4.71c-.35,0-.42-.25-.48-.47a21.29,21.29,0,0,0-1.9-4.53A16.8,16.8,0,0,1,122.17,53.43Zm-14.32-5.35a2.07,2.07,0,0,1,3.17.08,12.1,12.1,0,0,1,2.88,5.24h-9A11.62,11.62,0,0,1,107.85,48.08Zm-3,8.36c3.06,0,6.11,0,9.16,0,.48,0,.74.09.83.61.29,1.67.43,3.36.56,5.06.05.59-.37.38-.62.39H104c-.38,0-.63,0-.58-.54.13-1.6.28-3.19.53-4.78C104,56.67,104.21,56.43,104.83,56.44Zm-1.17-8a24.37,24.37,0,0,0-1.89,4.61c-.08.29-.27.37-.56.37-1.47,0-2.94,0-4.6,0A16.72,16.72,0,0,1,103.66,48.46Zm-3.3,8c.5,0,.6.17.51.6a34.48,34.48,0,0,0-.52,5c0,.43-.16.52-.56.51-1.07,0-2.14,0-3.21,0s-2.07,0-3.11,0c-.43,0-.62-.06-.55-.56a16.61,16.61,0,0,1,1.5-5.11.62.62,0,0,1,.66-.39C96.84,56.46,98.6,56.47,100.36,56.44Zm-53-.87c.08-1.16,0-2.33,0-3.5a4.58,4.58,0,0,1,4.73-4.69c1.92,0,3.85,0,5.77,0H90.76a4.76,4.76,0,0,1,4.33,2.2.7.7,0,0,1-.07,1,17.69,17.69,0,0,0-3.54,5.31c-.24.56-.59.54-1,.54H69.27q-10.48,0-21,0C47.58,56.47,47.3,56.35,47.35,55.57ZM91.13,135.1c-2,0-4.09,0-6.14,0H52.29a4.55,4.55,0,0,1-4.88-4.54c1.9,1.51,4.08,1.53,6.3,1.53q17.76,0,35.53,0c2.28,0,4.53,0,6.49-1.52A4.52,4.52,0,0,1,91.13,135.1Zm4.65-11.16c0,3.28-1.86,5.12-5.17,5.12H52.52c-3.3,0-5.15-1.84-5.15-5.13V60.42c0-.53-.11-1,.76-1q20.74,0,41.49,0l.61,0a19.66,19.66,0,0,0,.34,10.27,19.18,19.18,0,0,0,4.61,7.79,2,2,0,0,1,.61,1.48Q95.76,101.51,95.78,123.94Zm-.57-52.35a.74.74,0,0,1-.82-.45,17.62,17.62,0,0,1-1.46-4.93c-.08-.51,0-.72.6-.69,1,0,2.08,0,3.12,0s2.07,0,3.11,0c.45,0,.57.13.59.58a31.81,31.81,0,0,0,.52,4.86c.1.49-.05.64-.56.63C98.61,71.56,96.91,71.58,95.21,71.59Zm1.4,3c1.66,0,3.15,0,4.65,0a.47.47,0,0,1,.52.41,23.22,23.22,0,0,0,1.91,4.59A17,17,0,0,1,96.61,74.61Z"/><path class="cls-2" d="M71.73,95.77a16.5,16.5,0,0,1,11,4.34c.45.4.55.66,0,1.09s-1,1.28-1.58,1.43-1-.74-1.59-1.14a13.55,13.55,0,0,0-17,.67c-.58.5-.87.61-1.45,0-1.54-1.65-1.58-1.62.22-3A16.85,16.85,0,0,1,71.73,95.77Z"/><path class="cls-2" d="M73.09,123c2.3,0,4.6,0,6.9,0,.53,0,.67.14.68.67,0,2.36,0,2.36-2.29,2.36-4,0-8.07,0-12.1,0-.61,0-.78-.15-.77-.77,0-2.27,0-2.27,2.28-2.27Z"/><path class="cls-2" d="M79,105c-.61.58-1.25,1.14-1.84,1.74-.3.31-.46.22-.75,0-3.12-2.53-6.66-2.53-9.89,0-.32.25-.5.26-.76,0a10.14,10.14,0,0,0-1.14-1.13c-.63-.48-.6-.8,0-1.32A10.6,10.6,0,0,1,79,105Z"/><path class="cls-2" d="M71.67,50.4c2.74,0,5.48,0,8.22,0,.62,0,.78.15.78.77,0,2.27,0,2.27-2.29,2.27-5,0-10,0-15,0-.7,0-.89-.16-.87-.87,0-2.17,0-2.18,2.19-2.18Z"/><path class="cls-2" d="M53.42,51.87a1.51,1.51,0,1,1-3,.09,1.51,1.51,0,0,1,3-.09Z"/><path class="cls-2" d="M83.82,74.62a1.09,1.09,0,0,1-1.24-.79,13.58,13.58,0,0,0-25.2.4,1.36,1.36,0,0,1-.93.92,9.05,9.05,0,0,0,3.09,17.6c4,0,8,0,12,0H83.83a9.07,9.07,0,0,0,0-18.14Zm-.25,15.1c-4,0-8,0-12,0s-7.94,0-11.91,0a6,6,0,0,1-6.11-5.08,5.88,5.88,0,0,1,4.75-6.82,1.67,1.67,0,0,0,1.62-1.48,10.51,10.51,0,0,1,10.34-7.79,10.64,10.64,0,0,1,10.19,8.51c.28,1.18.3,1.23,1.48.86a6,6,0,1,1,1.65,11.79Z"/><path class="cls-2" d="M71.49,107.88A4.54,4.54,0,1,0,76,112.44,4.58,4.58,0,0,0,71.49,107.88Zm0,6.05a1.51,1.51,0,0,1,0-3,1.51,1.51,0,0,1,0,3Z"/></g></g></svg>