<svg xmlns="http://www.w3.org/2000/svg" viewBox="0 0 182.48 182.48"><defs><style>.cls-1{fill:#fff;stroke:#8fc640;stroke-miterlimit:10;stroke-width:4.59px;}.cls-2{fill:#8fc640;}</style></defs><g id="Layer_2" data-name="Layer 2"><g id="Layer_1-2" data-name="Layer 1"><circle class="cls-1" cx="91.24" cy="91.24" r="88.94"/><path class="cls-2" d="M104.51,43.37a25.72,25.72,0,0,1,2.71.84,10.28,10.28,0,0,1,6.17,8.49c.09.77.4.78,1,.78q7.42,0,14.86,0a9.65,9.65,0,0,1,9.87,9.83q0,24.9,0,49.82a9.84,9.84,0,0,1-2.08,6.24c-.84,1.08-1.89,1.35-2.82.68a1.88,1.88,0,0,1-.23-2.87,7.27,7.27,0,0,0,1.4-4.63q0-24.39,0-48.79c0-3.2-1.53-5.45-4.28-6.25a7.12,7.12,0,0,0-2.11-.29c-4.9,0-9.79,0-14.68,0-.63,0-.85.12-.83.8q.08,2.81,0,5.61c0,.65.16.83.82.83,3.8,0,7.6,0,11.4,0,1.4,0,2.19.5,2.39,1.47.27,1.39-.62,2.33-2.26,2.33-3.55,0-7.1,0-10.65,0-1.68,0-1.68,0-1.68,1.69,0,1.15,0,2.31,0,3.46,0,.62.16.78.78.78,3.73,0,7.47,0,11.21,0a7,7,0,0,1,1.21.09,1.84,1.84,0,0,1,.2,3.55,3.66,3.66,0,0,1-1.28.16c-3.77,0-7.54,0-11.31,0-.68,0-.83.19-.81.83.05,1.43.05,2.87,0,4.3,0,.65.17.83.82.82,3.71,0,7.42,0,11.13,0a5.66,5.66,0,0,1,1.3.1,1.71,1.71,0,0,1,1.39,1.65,1.79,1.79,0,0,1-1.19,1.88,3.77,3.77,0,0,1-1.29.18c-3.77,0-7.54,0-11.31,0-.73,0-.87.2-.85.88.05,1.43.05,2.87,0,4.3,0,.63.18.78.78.77,3.71,0,7.42,0,11.12,0,.28,0,.57,0,.84,0a1.9,1.9,0,0,1,1.93,1.88,1.94,1.94,0,0,1-2,1.91c-.22,0-.43,0-.65,0-3.71,0-7.42,0-11.13,0-.76,0-1,.23-.88.93a7.17,7.17,0,0,1,0,1.31,1.91,1.91,0,0,1-1.89,1.92,1.83,1.83,0,0,1-1.86-1.92c0-.31,0-.62,0-.94V54.36c0-2.91-1.08-5.19-3.77-6.55a7.55,7.55,0,0,0-3.44-.69H80c-4.43,0-7.21,2.79-7.21,7.24q0,26.22,0,52.44c0,.29-.12.61.12.9.35-.13.41-.46.55-.71A21,21,0,0,1,83,98a2,2,0,0,1,2.54.33,1.86,1.86,0,0,1-.7,3,23.88,23.88,0,0,0-3.64,2.24,17,17,0,0,0-5,6.4c-1,2.19-1.5,2.43-3.72,1.67a6.93,6.93,0,0,0-9.17,7.69c.23,1.45-.09,2-1.46,2.75a7.09,7.09,0,0,0-4,6.53,7,7,0,0,0,5.22,6.51,9.11,9.11,0,0,0,2.21.28q24.32,0,48.61,0a10.5,10.5,0,1,0,0-21,10.33,10.33,0,0,0-8.59,4.8c-.15.23-.3.47-.47.69a1.83,1.83,0,0,1-2.53.62,1.86,1.86,0,0,1-.65-2.59,12.92,12.92,0,0,1,3.54-4.17,11.13,11.13,0,0,1,2.34-1.51c.48-.22.61-.44.4-1a17.23,17.23,0,0,0-7.87-9.22c-.33-.19-.67-.34-1-.54a1.89,1.89,0,0,1-.78-2.56,1.86,1.86,0,0,1,2.57-.73,20.78,20.78,0,0,1,7,5.48,20.18,20.18,0,0,1,3.65,6.44c.2.59.51.66,1,.6A14.26,14.26,0,0,1,116.2,139a15.29,15.29,0,0,1-2.23.15q-24.5,0-49,0a10.23,10.23,0,0,1-10-6.49c-1.85-4.21-1-8.14,2-11.6a8.19,8.19,0,0,1,2-1.66.88.88,0,0,0,.46-.9,10.77,10.77,0,0,1,9-10.9c.44-.08.55-.22.54-.63,0-3,0-6,0-9,0-.69-.4-.54-.78-.54H56.64c-1.51,0-2.38-.81-2.26-2.08a1.69,1.69,0,0,1,1.42-1.62,5.36,5.36,0,0,1,1.2-.1c3.74,0,7.48,0,11.22,0,.58,0,.82-.1.79-.76-.05-1.49-.05-3,0-4.48,0-.62-.2-.7-.74-.7q-5.79,0-11.59,0c-1.57,0-2.43-.82-2.3-2.13A1.67,1.67,0,0,1,55.76,84a5,5,0,0,1,1.29-.11c3.71,0,7.42,0,11.13,0,.63,0,.86-.13.83-.81C69,81.6,69,80.13,69,78.67c0-.66-.22-.75-.79-.74q-5.79,0-11.59,0c-1.51,0-2.37-.82-2.25-2.09a1.67,1.67,0,0,1,1.42-1.61,5.45,5.45,0,0,1,1.21-.1c3.74,0,7.48,0,11.22,0,.58,0,.81-.12.78-.77C69,71.92,69,70.45,69,69c0-.69-.23-.79-.85-.79-3.83,0-7.66,0-11.49,0-1.57,0-2.44-.82-2.3-2.13a1.69,1.69,0,0,1,1.38-1.56,5.62,5.62,0,0,1,1.3-.1c3.71,0,7.41,0,11.12,0,.64,0,.84-.15.83-.82,0-3.08,0-6.17,0-9.25,0-5.79,3.17-9.68,8.84-10.86,0,0,.08-.08.12-.13Z"/><path class="cls-2" d="M43.37,61.51a12,12,0,0,1,2.52-4.87,9.35,9.35,0,0,1,6.83-3.16c3.39,0,6.79,0,10.18,0,1.39,0,2.2.69,2.21,1.85s-.81,1.89-2.26,1.89H53.41a5.93,5.93,0,0,0-6,4.32,8.28,8.28,0,0,0-.27,2.22q0,24.54,0,49.06a6.16,6.16,0,0,0,3.28,5.84,1.89,1.89,0,0,1,1,2.72c-.55,1-1.63,1.19-2.85.53a9.63,9.63,0,0,1-4.92-6.36c-.05-.19.06-.46-.23-.56Z"/><path class="cls-2" d="M91.19,59.08H83.34c-1.36,0-2.19-.72-2.19-1.87s.83-1.87,2.19-1.87H99.13c1.36,0,2.2.72,2.2,1.87s-.84,1.86-2.2,1.87Z"/><path class="cls-2" d="M91.17,68.8c-2.62,0-5.24,0-7.85,0-1.35,0-2.19-.75-2.17-1.89a1.89,1.89,0,0,1,2.12-1.85H99.16c1.35,0,2.18.75,2.17,1.9s-.85,1.84-2.22,1.84Z"/><path class="cls-2" d="M91.33,74.78h7.76c1.42,0,2.27.73,2.24,1.91s-.86,1.82-2.25,1.82q-7.85,0-15.69,0c-1.42,0-2.27-.74-2.24-1.91s.86-1.82,2.24-1.82Z"/><path class="cls-2" d="M91.23,88.25H83.38c-1.38,0-2.21-.69-2.23-1.82s.82-1.91,2.24-1.91q7.86,0,15.7,0c1.38,0,2.21.69,2.24,1.82s-.83,1.91-2.25,1.91Z"/><path class="cls-2" d="M63.64,101.65a1.84,1.84,0,0,1,2,1.61,1.7,1.7,0,0,1-1.44,2,2.13,2.13,0,0,0-2,2.12,1.8,1.8,0,0,1-2,1.39,2,2,0,0,1-1.63-2.16A5.33,5.33,0,0,1,63.64,101.65Z"/><path class="cls-2" d="M118.89,101.67a5.2,5.2,0,0,1,4.94,5,1.92,1.92,0,0,1-1.54,2.12,1.78,1.78,0,0,1-2.1-1.51,2.08,2.08,0,0,0-2-2,1.78,1.78,0,0,1-1.53-2.08A1.9,1.9,0,0,1,118.89,101.67Z"/><path class="cls-2" d="M93.73,98a1.9,1.9,0,0,1-2,1.84,1.92,1.92,0,0,1-1.84-1.88,1.9,1.9,0,0,1,3.79,0Z"/><path class="cls-2" d="M101,124.32a1.84,1.84,0,0,1,1.88,1.87,1.86,1.86,0,0,1-1.8,1.87,1.87,1.87,0,1,1-.08-3.74Z"/></g></g></svg>