<svg xmlns="http://www.w3.org/2000/svg" viewBox="0 0 182.48 182.48"><defs><style>.cls-1{fill:#fff;stroke:#8fc640;stroke-miterlimit:10;stroke-width:4.59px;}.cls-2{fill:#8fc640;}</style></defs><g id="Layer_2" data-name="Layer 2"><g id="Layer_1-2" data-name="Layer 1"><circle class="cls-1" cx="91.24" cy="91.24" r="88.94"/><path class="cls-2" d="M150.72,49.28,137.66,53a1,1,0,0,0-.87,1.13V66.81a3.72,3.72,0,0,0-2.35-.49,3.84,3.84,0,0,0-3.27,3,3.8,3.8,0,0,0,1.76,4,6.36,6.36,0,0,0,1.39.54h1.08s0,0,.07,0A3.77,3.77,0,0,0,138.69,70c0-3.72,0-7.45,0-11.17,0-.26.06-.37.32-.45,2.81-.78,5.62-1.58,8.42-2.37l2.77-.78V63l-.16-.08A3.81,3.81,0,0,0,144.59,67a3.8,3.8,0,0,0,7.53-.79V50.34C152.12,49.44,151.59,49,150.72,49.28ZM134.88,72a1.9,1.9,0,1,1,1.91-1.91A1.93,1.93,0,0,1,134.88,72Zm13.43-3.8a1.9,1.9,0,1,1,1.91-1.88A1.92,1.92,0,0,1,148.31,68.2Zm1.61-14.88-5.52,1.56-5.57,1.58-.14,0c0-.55,0-1.09,0-1.63,0-.21.13-.2.25-.24l6.36-1.8,4.81-1.36.11,0c0,.55,0,1.09,0,1.62C150.23,53.31,150,53.28,149.92,53.32Z"/><path class="cls-2" d="M132.93,48.21a31.61,31.61,0,0,1-2.86-2.45,21.58,21.58,0,0,1-2.79-3.66,2,2,0,0,0-.32-.39.88.88,0,0,0-1-.15.94.94,0,0,0-.57.93c0,4.82,0,9.63,0,14.44v.37l-.17-.09a3.81,3.81,0,0,0-5.35,2.24c-.06.17,0,.37-.18.52v1.21c.07,0,.06.1.07.16a3.85,3.85,0,0,0,3.39,3.06,3.8,3.8,0,0,0,4.14-3.88q0-7.32,0-14.63a.54.54,0,0,1,0-.33c.36.45.72.87,1.11,1.28a27.41,27.41,0,0,0,3.41,3,2.78,2.78,0,0,1,1,3,2.84,2.84,0,0,1-2.77,2.16.93.93,0,0,0-.93,1,1,1,0,0,0,.95,1,3.38,3.38,0,0,0,1-.11,4.76,4.76,0,0,0,1.79-8.49ZM123.51,62.5a1.9,1.9,0,1,1,1.88-1.91A1.92,1.92,0,0,1,123.51,62.5Z"/><path class="cls-2" d="M134.3,65.13a4,4,0,0,1,.59,0V55.7A5.23,5.23,0,0,1,133.45,57V65.3A4.74,4.74,0,0,1,134.3,65.13Z"/><path class="cls-2" d="M134.12,75.11l-.18-.06-.31-.1-.18-.06c0,1.66,0,3.34,0,5a2.37,2.37,0,0,1-2.37,2.37c-6.75,0-13.6,0-20.36,0a2.37,2.37,0,0,1-2.37-2.37V40a2.4,2.4,0,0,1,1.74-2.29,1,1,0,0,0,.3-.08h21.13l.13,0a2.93,2.93,0,0,1,.43.18A2.29,2.29,0,0,1,133.44,40v7.12l.23.17a7.31,7.31,0,0,1,1.22,1.2V40a3.74,3.74,0,0,0-2.13-3.42,5.27,5.27,0,0,0-.63-.26l-.22-.08-.13-.05H109.69l-.07.15A3.84,3.84,0,0,0,106.89,40v40a3.83,3.83,0,0,0,3.82,3.82h20.36a3.83,3.83,0,0,0,3.82-3.82V75.11Z"/><circle class="cls-2" cx="120.97" cy="77.86" r="2.65"/><rect class="cls-2" x="116.22" y="39.06" width="9.5" height="1.43" rx="0.72"/><path class="cls-2" d="M47.67,134.38c0,1.64,0,1.64-1.68,1.33a10.44,10.44,0,0,1-8.71-9c-.19-1.27-.19-1.28,1.1-1.27.59,0,1.31-.17,1.71.11s.22,1,.33,1.56a7.53,7.53,0,0,0,5.81,5.61C47.67,132.94,47.67,132.94,47.67,134.38Z"/><path class="cls-2" d="M104.33,134.29a2.46,2.46,0,0,0,0-.47c-.17-.75.17-.94.89-1a7.29,7.29,0,0,0,6.5-6.69c.09-.58.26-.73.78-.67a10.46,10.46,0,0,0,1.12,0c1.3,0,1.3,0,1.1,1.27a10.43,10.43,0,0,1-8.71,9C104.33,136,104.33,136,104.33,134.29Z"/><path class="cls-2" d="M120.3,93.62c-.42-.54-.71-.55-1.21,0-2.23,2.29-4.52,4.52-6.76,6.81-.43.44-.65.42-1.08,0Q100.93,90,90.56,79.7c-.41-.4-.43-.6,0-1,1.46-1.4,2.88-2.85,4.31-4.29.54-.55,1.49-1.12,1.48-1.66s-1-1.1-1.48-1.69c-.35-.4-.55-.39-.93,0Q77.09,87.93,60.21,104.79a1.54,1.54,0,0,0,.07,2.55,10,10,0,0,0,12.67.73,26,26,0,0,0,2.9-2.75.72.72,0,0,1,1-.18,15,15,0,0,0,11,.62.87.87,0,0,1,1,.29c1.08,1.11,2.19,2.19,3.29,3.29q5.56,5.56,11.14,11.13a2.89,2.89,0,0,1,1,2.65,2.6,2.6,0,0,1-1.85,2.13,2.65,2.65,0,0,1-2.87-.79l-9-9c-.5-.5-1-1.36-1.55-1.35s-1,.92-1.55,1.36-.46.73,0,1.2q5,4.92,9.89,9.87a2.78,2.78,0,0,1,1,2.58,2.6,2.6,0,0,1-1.86,2.13,2.67,2.67,0,0,1-2.87-.81q-4.51-4.51-9-9c-.48-.48-.94-1.28-1.48-1.33s-1,.87-1.54,1.3-.59.72,0,1.26c3.3,3.24,6.56,6.53,9.84,9.8a2.82,2.82,0,0,1,1,2.65,2.61,2.61,0,0,1-1.86,2.11,2.64,2.64,0,0,1-2.87-.82c-3-3-5.93-5.93-8.9-8.88-.54-.54-1-1.53-1.67-1.47s-1.11,1-1.69,1.51c-.35.32-.37.53,0,.87,1,.92,1.9,1.88,2.84,2.83,2.44,2.43,4.89,4.86,7.31,7.31a2.68,2.68,0,0,1-.56,4.45c-1.19.6-2.27.36-3.42-.79L66.8,127.5q-9-9-17.93-17.92c-.37-.37-.56-.58-.07-1.08Q59.21,98.15,69.57,87.75c.37-.37.57-.37.94,0,1.19,1.19,1.21,1.17,2.43,0a1.89,1.89,0,0,1,.2-.2c.69-.46.58-.82,0-1.4Q59.41,72.44,45.72,58.71c-.48-.48-1-1.29-1.48-1.29s-1,.88-1.49,1.29-.51.81,0,1.34q9.31,9.26,18.59,18.56c.34.34.65.55.11,1.08Q51.06,90,40.71,100.44c-.43.43-.63.36-1,0-1.91-2-3.85-3.88-5.79-5.8-.53-.52-1-1.44-1.62-1.41s-1,.94-1.55,1.38-.39.76.05,1.2c3.82,3.78,7.61,7.59,11.41,11.39q6.59,6.58,13.19,13.16c.5.5.52.75,0,1.22-1,1-2,2-3,3a2.67,2.67,0,0,1-3.84,0,2.74,2.74,0,0,1,0-3.86c.45-.48.91-.93,1.39-1.38.29-.27.27-.43,0-.73-1.7-1.89-1.69-1.89-3.44-.12-.13.14-.26.27-.38.41a5.52,5.52,0,0,0-1,5.91A5.44,5.44,0,0,0,50,128.38c.45,0,.62.09.64.6a5.6,5.6,0,0,0,5.39,5.36c.44,0,.55.14.58.58A5.61,5.61,0,0,0,62,140.31c.39,0,.57.05.6.54a5.39,5.39,0,0,0,3.71,5.07,5.46,5.46,0,0,0,6.07-1.34c1-1,2.07-2,3-3,.5-.55.77-.46,1.22,0,1,1.09,2.07,2.15,3.17,3.16a5.7,5.7,0,0,0,9.61-3.83c0-.52.22-.57.65-.59A5.64,5.64,0,0,0,95.37,135c0-.48.14-.6.62-.63a5.6,5.6,0,0,0,5.34-5.31c0-.54.19-.65.69-.65a4.93,4.93,0,0,0,2.77-.94,5.71,5.71,0,0,0,.78-8.88q-6.88-6.94-13.84-13.83c-.45-.45-.46-.63.09-1,1.45-.92,1.43-.95.47-2.38-.71-1.07-.72-1.08-1.81-.34a12.23,12.23,0,0,1-13.57.8,1.63,1.63,0,0,0-2.17.35c-.95,1-1.91,2-2.9,2.89a6.84,6.84,0,0,1-8.42.86,4.58,4.58,0,0,1,.35-.42q8.85-8.86,17.71-17.74c.44-.44.64-.33,1,0q10.33,10.36,20.69,20.69c.38.38.51.6,0,1s-1.35.91-1.29,1.46.9,1,1.33,1.49.75.53,1.27,0q7.84-7.91,15.73-15.76c.5-.5,1.33-1,1.38-1.55S120.73,94.17,120.3,93.62Zm-74,13.17c-.3,0-.4-.25-.55-.4-.92-.91-1.81-1.88-2.78-2.74-.55-.5-.43-.75,0-1.22q8.61-8.57,17.19-17.16c1.14-1.14,2.3-2.27,3.41-3.43.38-.39.6-.49,1,0,.92,1,1.9,2,2.89,2.9.41.39.32.59,0,.94l-20.8,20.79Zm10.11,24.58A2.79,2.79,0,0,1,54,129.89a2.4,2.4,0,0,1,.27-2.86c1.13-1.28,2.38-2.43,3.57-3.66.29-.31.46-.14.67.07,1,1,2,2.08,3.09,3.08.36.34.24.53,0,.81-1.06,1-2.11,2.1-3.16,3.15A3.15,3.15,0,0,1,56.36,131.37Zm7.78,5.23a2.94,2.94,0,0,1-1.84.74,2.78,2.78,0,0,1-2.39-1.54,2.41,2.41,0,0,1,.33-2.86c1.11-1.24,2.34-2.38,3.51-3.58.26-.28.43-.23.67,0Q66,131,67.57,132.53c.26.25.27.42,0,.68C66.42,134.33,65.3,135.48,64.14,136.6Zm9.38,2.6c-1.16,1.12-2.28,2.27-3.44,3.4a2.88,2.88,0,0,1-1.79.71,2.81,2.81,0,0,1-2.39-1.49,2.46,2.46,0,0,1,.26-2.87c1.13-1.27,2.39-2.43,3.58-3.65.3-.31.46-.14.67.07,1,1,2,2.07,3.09,3.09C73.78,138.73,73.82,138.91,73.52,139.2Zm35.77-35.79c-1,1-2.08,2-3.08,3.1-.35.36-.53.23-.81-.05Q95,96,84.53,85.6c-.34-.34-.37-.53,0-.87,1-.9,1.88-1.81,2.76-2.77.48-.52.75-.56,1.29,0Q98.57,92,108.62,102c.22.22.45.44.66.66s.2.22.33.37A4,4,0,0,1,109.29,103.41Z"/></g></g></svg>