<svg xmlns="http://www.w3.org/2000/svg" viewBox="0 0 182.48 182.48"><defs><style>.cls-1{fill:#fff;stroke:#8fc640;stroke-miterlimit:10;stroke-width:4.59px;}.cls-2{fill:#8fc640;}</style></defs><g id="Layer_2" data-name="Layer 2"><g id="Layer_1-2" data-name="Layer 1"><circle class="cls-1" cx="91.24" cy="91.24" r="88.94"/><path class="cls-2" d="M132.58,70.45l-25.45,7.23a1.89,1.89,0,0,0-1.68,2.19v24.74a7.35,7.35,0,0,0-4.58-1,7.42,7.42,0,0,0-3,13.73,12.86,12.86,0,0,0,2.72,1h2.1a.44.44,0,0,1,.15-.08,7.37,7.37,0,0,0,6.27-7.52q0-10.89,0-21.78c0-.5.11-.73.63-.87q8.22-2.3,16.41-4.63l5.4-1.52V97.17l-.31-.15a7.43,7.43,0,0,0-10.63,8,7.4,7.4,0,0,0,14.68-1.54v-31C135.32,70.75,134.28,70,132.58,70.45Zm-30.86,44.29a3.7,3.7,0,1,1,3.72-3.73A3.77,3.77,0,0,1,101.72,114.74Zm26.18-7.41a3.7,3.7,0,1,1,3.71-3.67A3.76,3.76,0,0,1,127.9,107.33Zm3.12-29q-5.37,1.55-10.74,3l-10.87,3.07-.26.06c0-1.08,0-2.13,0-3.18,0-.41.25-.4.49-.47L122,77.33l9.39-2.65.2,0c0,1.06,0,2.11,0,3.15C131.65,78.3,131.27,78.24,131,78.31Z"/><path class="cls-2" d="M97.92,68.35a58.68,58.68,0,0,1-5.58-4.76,42.87,42.87,0,0,1-5.45-7.13,3.29,3.29,0,0,0-.61-.77,1.74,1.74,0,0,0-2-.3,1.84,1.84,0,0,0-1.11,1.83q0,14.07,0,28.14v.72l-.34-.17a7.43,7.43,0,0,0-10.44,4.36c-.11.34-.08.73-.33,1v2.34c.13.08.1.21.13.33a7.41,7.41,0,0,0,14.68-1.61V63.84a1.06,1.06,0,0,1,.08-.65c.71.88,1.42,1.71,2.17,2.5a53.75,53.75,0,0,0,6.66,5.76,5.47,5.47,0,0,1,2,5.76,5.56,5.56,0,0,1-5.41,4.2,1.86,1.86,0,0,0,0,3.71,8.06,8.06,0,0,0,2-.2,9.28,9.28,0,0,0,3.49-16.57ZM79.56,96.22a3.7,3.7,0,1,1,3.66-3.73A3.76,3.76,0,0,1,79.56,96.22Z"/><path class="cls-2" d="M100.59,101.33a11.09,11.09,0,0,1,1.15-.07V83a10.55,10.55,0,0,1-2.82,2.58v16.13A10.32,10.32,0,0,1,100.59,101.33Z"/><path class="cls-2" d="M100.24,120.79l-.36-.12-.59-.19-.37-.12v9.83a4.63,4.63,0,0,1-4.63,4.62H54.61A4.64,4.64,0,0,1,50,130.19V52.28a4.67,4.67,0,0,1,3.4-4.46,2.14,2.14,0,0,0,.57-.16H95.14l.26.1a7.15,7.15,0,0,1,.85.34,4.49,4.49,0,0,1,2.66,4.18q0,6.84,0,13.88l.43.33a13.33,13.33,0,0,1,2.39,2.35q0-8.43,0-16.56a7.28,7.28,0,0,0-4.15-6.66,8.62,8.62,0,0,0-1.22-.51l-.44-.17-.25-.1h-43l-.16.31a7.46,7.46,0,0,0-5.3,7.13c0,29.72,0,54.48,0,77.91a7.45,7.45,0,0,0,7.44,7.44H94.3a7.45,7.45,0,0,0,7.43-7.44q0-4.75,0-9.4Z"/><circle class="cls-2" cx="74.6" cy="126.14" r="5.16"/><rect class="cls-2" x="65.35" y="50.53" width="18.51" height="2.79" rx="1.4"/></g></g></svg>