<svg xmlns="http://www.w3.org/2000/svg" viewBox="0 0 182.48 182.48"><defs><style>.cls-1{fill:#fff;stroke-width:4.59px;}.cls-1,.cls-2{stroke:#8fc640;stroke-miterlimit:10;}.cls-2{fill:none;stroke-width:3.06px;}.cls-3{fill:#8fc640;}</style></defs><g id="Layer_2" data-name="Layer 2"><g id="Layer_1-2" data-name="Layer 1"><circle class="cls-1" cx="91.24" cy="91.24" r="88.94"/><path class="cls-2" d="M53,137.47c-3.63-.35-7.22-3.76-7.93-7.53a12.44,12.44,0,0,1-.19-2.43c0-17.76.07-35.51,0-53.26a10,10,0,0,1,9.92-10.1c8.88,0,17.75,0,26.63,0a9.59,9.59,0,0,1,9.78,8.27,6.77,6.77,0,0,1,.1,1.35q0,27.13,0,54.26a9.7,9.7,0,0,1-7.48,9.35,4.34,4.34,0,0,1-.63.07c-.29.17-.65-.06-.94.16H53.93C53.65,137.41,53.28,137.64,53,137.47Z"/><path class="cls-3" d="M94.52,137.63c-.46-.37-1-.65-1.22-1.26a1.91,1.91,0,0,1,1.54-2.55,7.67,7.67,0,0,1,1.17-.08q15.63,0,31.25,0a6.17,6.17,0,0,0,5.37-2.4,6.47,6.47,0,0,0,1.13-4.09q0-11.1,0-22.19,0-24.87,0-49.73a6.68,6.68,0,0,0-1.11-4.19,6.12,6.12,0,0,0-5.36-2.41H87.17c-3.38,0-6.76-.12-10.14.08a5.58,5.58,0,0,0-5,5c-.09,1.51-.07,3-.12,4.53a1.93,1.93,0,0,1-3.12,1.52,1.55,1.55,0,0,1-.7-1.21c0-2.25-.3-4.52.31-6.75a9.62,9.62,0,0,1,9.11-7.07q25.36,0,50.72,0c4.52,0,8.83,3.84,9.24,8.11.17.29-.06.66.16.94v74.66c-.19.29-.05.62-.1.92-.05,2.71-1.54,4.65-3.51,6.26a6.74,6.74,0,0,1-4.52,1.79c-.31,0-.64-.1-.93.09Z"/><path class="cls-3" d="M137.65,53.91a1,1,0,0,1-.16-.94l.16,0Z"/><path class="cls-3" d="M137.65,129.47l-.16,0a1,1,0,0,1,.16-.94Z"/><path class="cls-3" d="M129.53,137.47a.29.29,0,0,0,0,.16h-.9C128.86,137.36,129.2,137.43,129.53,137.47Z"/><path class="cls-3" d="M129.94,87.39v32c0,2.22-.62,2.83-2.85,2.83H97.64c-1.42,0-2.16-.46-2.43-1.52a1.88,1.88,0,0,1,1.25-2.27,4.35,4.35,0,0,1,1.34-.15c9.09,0,18.18,0,27.27,0,.74,0,1-.1,1-1q0-30,0-60c0-.75-.17-.93-.93-.93q-22.27,0-44.57,0c-.74,0-1,.16-.92.93a4.84,4.84,0,0,1,0,1.26,1.89,1.89,0,0,1-1.83,1.68,1.8,1.8,0,0,1-2-1.61,20,20,0,0,1,0-4.51,1.69,1.69,0,0,1,1.53-1.53,6.56,6.56,0,0,1,1.08-.09h48.74a3.16,3.16,0,0,1,1.83.35,2.27,2.27,0,0,1,.9,2.14V87.39Z"/><path class="cls-3" d="M102.87,131.83a3.87,3.87,0,0,1-3.89-3.9,3.88,3.88,0,1,1,7.75.07A3.86,3.86,0,0,1,102.87,131.83Z"/><path class="cls-3" d="M68,71.87c1.18,0,2.36,0,3.53,0,1.41,0,2.32.82,2.29,2a2,2,0,0,1-2.28,1.92c-2.36,0-4.71,0-7.07,0a2,2,0,1,1,0-3.93C65.69,71.86,66.86,71.87,68,71.87Z"/><path class="cls-3" d="M83.62,73.87a2,2,0,0,1-2,1.93,2.08,2.08,0,0,1-1.92-1.94,2,2,0,1,1,3.92,0Z"/><path class="cls-3" d="M68,131.83A3.87,3.87,0,0,1,64.19,128a3.88,3.88,0,1,1,7.75,0A3.86,3.86,0,0,1,68,131.83Z"/></g></g></svg>