<?xml version="1.0" standalone="no"?>
<!DOCTYPE svg PUBLIC "-//W3C//DTD SVG 20010904//EN"
 "http://www.w3.org/TR/2001/REC-SVG-20010904/DTD/svg10.dtd">
<svg version="1.0" xmlns="http://www.w3.org/2000/svg"
 width="840.000000pt" height="859.000000pt" viewBox="0 0 840.000000 859.000000"
 preserveAspectRatio="xMidYMid meet">

<g transform="translate(0.000000,859.000000) scale(0.100000,-0.100000)"
fill="#000000" stroke="none">
<path d="M4065 8360 c-4 -6 -70 -10 -166 -10 -99 0 -159 -4 -159 -10 0 -6 -35
-10 -84 -10 -51 0 -86 -4 -88 -11 -2 -6 -32 -13 -66 -16 -34 -3 -65 -10 -68
-14 -3 -5 -30 -9 -60 -9 -30 0 -54 -4 -54 -10 0 -5 -21 -10 -46 -10 -27 0 -51
-6 -60 -15 -9 -8 -31 -15 -50 -15 -19 0 -34 -4 -34 -10 0 -5 -20 -10 -45 -10
-25 0 -45 -4 -45 -10 0 -5 -14 -10 -31 -10 -17 0 -37 -7 -45 -15 -9 -8 -26
-15 -40 -15 -13 0 -24 -4 -24 -10 0 -5 -16 -10 -35 -10 -19 0 -35 -4 -35 -10
0 -5 -16 -10 -35 -10 -24 0 -35 -5 -35 -15 0 -9 -9 -15 -25 -15 -14 0 -25 -4
-25 -10 0 -5 -13 -10 -30 -10 -16 0 -30 -4 -30 -10 0 -5 -11 -10 -25 -10 -14
0 -25 -4 -25 -10 0 -5 -11 -12 -25 -16 -14 -3 -25 -10 -25 -15 0 -5 -11 -9
-25 -9 -14 0 -25 -4 -25 -10 0 -5 -13 -10 -29 -10 -16 0 -31 -6 -35 -15 -3 -8
-15 -15 -26 -15 -11 0 -20 -4 -20 -10 0 -5 -11 -10 -25 -10 -14 0 -25 -4 -25
-10 0 -5 -7 -10 -14 -10 -8 0 -27 -11 -42 -25 -15 -14 -35 -25 -45 -25 -11 0
-19 -4 -19 -10 0 -5 -9 -10 -19 -10 -10 0 -21 -7 -25 -15 -3 -8 -15 -15 -26
-15 -11 0 -20 -4 -20 -10 0 -5 -7 -10 -15 -10 -8 0 -15 -4 -15 -10 0 -5 -9
-10 -20 -10 -11 0 -20 -7 -20 -15 0 -8 -9 -15 -20 -15 -11 0 -20 -4 -20 -10 0
-5 -7 -10 -15 -10 -8 0 -15 -4 -15 -10 0 -5 -7 -10 -15 -10 -9 0 -26 -11 -39
-25 -13 -14 -31 -25 -40 -25 -9 0 -16 -4 -16 -10 0 -5 -5 -10 -10 -10 -6 0
-21 -11 -34 -25 -13 -14 -29 -25 -35 -25 -7 0 -28 -16 -47 -35 -18 -19 -39
-35 -44 -35 -6 0 -26 -16 -44 -35 -19 -19 -38 -35 -45 -35 -6 0 -11 -4 -11
-10 0 -5 -9 -10 -20 -10 -11 0 -20 -5 -20 -10 0 -13 -46 -60 -58 -60 -5 0 -15
-11 -22 -25 -7 -14 -18 -25 -23 -25 -5 0 -28 -20 -53 -45 -24 -25 -50 -45 -59
-45 -8 0 -15 -5 -15 -11 0 -14 -25 -39 -39 -39 -6 0 -11 -7 -11 -15 0 -9 -20
-35 -45 -59 -25 -25 -45 -48 -45 -53 0 -5 -11 -16 -25 -23 -14 -7 -25 -17 -25
-22 0 -12 -47 -58 -60 -58 -5 0 -10 -9 -10 -20 0 -11 -4 -20 -10 -20 -5 0 -10
-5 -10 -11 0 -7 -16 -26 -35 -45 -19 -18 -35 -38 -35 -44 0 -5 -16 -26 -35
-44 -19 -19 -35 -40 -35 -47 0 -6 -11 -22 -25 -35 -14 -13 -25 -28 -25 -34 0
-5 -4 -10 -10 -10 -5 0 -10 -7 -10 -16 0 -9 -11 -27 -25 -40 -14 -13 -25 -30
-25 -39 0 -8 -4 -15 -10 -15 -5 0 -10 -7 -10 -15 0 -8 -4 -15 -10 -15 -5 0
-10 -9 -10 -20 0 -11 -7 -20 -15 -20 -8 0 -15 -9 -15 -20 0 -11 -4 -20 -10
-20 -5 0 -10 -7 -10 -15 0 -8 -4 -15 -10 -15 -5 0 -10 -9 -10 -20 0 -11 -7
-23 -15 -26 -8 -4 -15 -15 -15 -25 0 -10 -4 -19 -10 -19 -5 0 -10 -8 -10 -19
0 -10 -11 -30 -25 -45 -14 -15 -25 -34 -25 -42 0 -7 -4 -14 -10 -14 -5 0 -10
-11 -10 -25 0 -14 -4 -25 -10 -25 -5 0 -10 -9 -10 -20 0 -11 -7 -23 -15 -26
-9 -4 -15 -19 -15 -35 0 -16 -4 -29 -10 -29 -5 0 -10 -5 -10 -12 0 -18 -33
-88 -42 -88 -4 0 -8 -11 -8 -25 0 -14 -4 -25 -10 -25 -5 0 -10 -13 -10 -30 0
-16 -4 -30 -10 -30 -5 0 -10 -11 -10 -25 0 -16 -6 -25 -15 -25 -10 0 -15 -11
-15 -35 0 -19 -4 -35 -10 -35 -5 0 -10 -16 -10 -35 0 -19 -4 -35 -10 -35 -5 0
-10 -11 -10 -24 0 -14 -7 -31 -15 -40 -8 -8 -15 -28 -15 -45 0 -17 -4 -31 -10
-31 -5 0 -10 -20 -10 -45 0 -25 -4 -45 -10 -45 -5 0 -10 -15 -10 -34 0 -19 -7
-41 -15 -50 -9 -9 -15 -33 -15 -60 0 -25 -4 -46 -10 -46 -5 0 -10 -24 -10 -54
0 -30 -4 -57 -9 -60 -4 -3 -11 -34 -14 -68 -3 -34 -10 -64 -16 -66 -7 -2 -11
-37 -11 -88 0 -49 -4 -84 -10 -84 -6 0 -10 -60 -10 -159 0 -96 -4 -162 -10
-166 -13 -8 -13 -272 0 -280 6 -4 10 -70 10 -166 0 -99 4 -159 10 -159 6 0 10
-35 10 -84 0 -51 4 -86 11 -88 6 -2 13 -32 16 -66 3 -34 10 -65 14 -68 5 -3 9
-30 9 -60 0 -30 5 -54 10 -54 6 0 10 -21 10 -46 0 -27 6 -51 15 -60 8 -9 15
-31 15 -50 0 -19 5 -34 10 -34 6 0 10 -20 10 -45 0 -25 5 -45 10 -45 6 0 10
-14 10 -31 0 -17 7 -37 15 -45 8 -9 15 -26 15 -40 0 -13 5 -24 10 -24 6 0 10
-16 10 -35 0 -19 5 -35 10 -35 6 0 10 -16 10 -35 0 -24 5 -35 15 -35 9 0 15
-9 15 -25 0 -14 5 -25 10 -25 6 0 10 -13 10 -30 0 -16 5 -30 10 -30 6 0 10
-11 10 -25 0 -14 4 -25 10 -25 5 0 12 -11 16 -25 3 -14 10 -25 15 -25 5 0 9
-11 9 -25 0 -14 5 -25 10 -25 6 0 10 -13 10 -29 0 -16 6 -31 15 -35 8 -3 15
-15 15 -26 0 -11 5 -20 10 -20 6 0 10 -11 10 -25 0 -14 5 -25 10 -25 6 0 10
-7 10 -14 0 -8 11 -27 25 -42 14 -15 25 -35 25 -45 0 -11 5 -19 10 -19 6 0 10
-9 10 -19 0 -10 7 -21 15 -25 8 -3 15 -15 15 -26 0 -11 5 -20 10 -20 6 0 10
-7 10 -15 0 -8 5 -15 10 -15 6 0 10 -9 10 -20 0 -11 7 -20 15 -20 8 0 15 -9
15 -20 0 -11 5 -20 10 -20 6 0 10 -7 10 -15 0 -8 5 -15 10 -15 6 0 10 -7 10
-15 0 -9 11 -26 25 -39 14 -13 25 -31 25 -40 0 -9 5 -16 10 -16 6 0 10 -5 10
-10 0 -6 11 -21 25 -34 14 -13 25 -29 25 -35 0 -7 16 -28 35 -47 19 -18 35
-39 35 -44 0 -6 16 -26 35 -44 19 -19 35 -38 35 -45 0 -6 5 -11 10 -11 6 0 10
-9 10 -20 0 -11 5 -20 10 -20 13 0 60 -46 60 -58 0 -5 11 -15 25 -22 14 -7 25
-18 25 -23 0 -5 20 -28 45 -53 25 -24 45 -50 45 -59 0 -8 9 -15 20 -15 13 0
20 7 20 20 0 11 7 23 15 26 8 4 15 15 15 25 0 10 5 19 10 19 6 0 10 7 10 15 0
8 5 15 10 15 6 0 10 9 10 20 0 11 7 20 15 20 8 0 15 7 15 15 0 8 5 15 10 15 6
0 10 7 10 16 0 9 20 36 45 60 25 23 45 47 45 53 0 13 158 171 171 171 5 0 29
20 53 45 25 25 53 45 65 45 12 0 21 6 21 14 0 7 15 19 33 27 17 7 39 20 47 30
8 9 25 19 38 23 12 4 22 12 22 17 0 5 9 9 20 9 11 0 20 5 20 10 0 6 11 10 24
10 13 0 26 7 30 15 3 8 15 15 26 15 11 0 20 5 20 10 0 6 9 10 20 10 11 0 20 5
20 10 0 6 11 10 24 10 13 0 26 3 28 8 4 10 75 42 93 42 8 0 15 5 15 10 0 6 11
10 24 10 13 0 26 3 28 8 5 11 76 42 98 42 11 0 20 5 20 10 0 6 11 10 25 10 14
0 25 3 25 8 0 10 58 42 76 42 8 0 14 5 14 10 0 6 16 10 35 10 19 0 35 4 35 9
0 11 56 41 77 41 7 0 13 5 13 10 0 6 11 10 25 10 14 0 25 6 25 13 0 7 16 19
35 27 19 8 35 17 35 22 0 4 11 8 25 8 16 0 25 6 25 15 0 8 9 15 20 15 11 0 20
5 20 10 0 6 7 10 15 10 8 0 15 5 15 10 0 6 7 10 15 10 9 0 26 11 39 25 13 14
31 25 40 25 9 0 16 5 16 10 0 6 7 10 15 10 8 0 15 5 15 10 0 11 45 60 55 60 8
0 105 97 105 105 0 3 11 17 25 31 14 14 25 31 25 39 0 8 5 15 10 15 6 0 10 9
10 20 0 11 5 20 10 20 6 0 10 11 10 25 0 16 6 25 15 25 12 0 15 13 15 60 0 33
4 60 10 60 6 0 10 9 10 20 0 11 -4 20 -10 20 -5 0 -10 24 -10 53 -1 30 -7 60
-15 71 -8 11 -15 30 -15 43 0 13 -4 23 -10 23 -5 0 -10 9 -10 20 0 11 -4 20
-9 20 -5 0 -12 11 -15 25 -4 14 -11 25 -16 25 -6 0 -10 9 -10 20 0 11 -4 20
-10 20 -5 0 -10 7 -10 15 0 8 -4 15 -10 15 -5 0 -10 9 -10 20 0 11 -7 23 -15
26 -8 4 -15 15 -15 25 0 10 -4 19 -10 19 -5 0 -10 11 -10 25 0 14 -4 25 -10
25 -5 0 -10 9 -10 20 0 11 -7 23 -15 26 -8 4 -15 17 -15 30 0 13 -4 24 -10 24
-5 0 -10 16 -10 35 0 19 -4 35 -10 35 -5 0 -10 13 -10 28 0 16 -7 37 -15 48
-8 10 -15 29 -15 42 0 12 -4 22 -10 22 -5 0 -10 9 -10 20 0 11 -4 20 -10 20
-5 0 -10 7 -10 16 0 9 -43 58 -95 110 -52 51 -95 98 -95 104 0 5 -4 10 -10 10
-5 0 -10 9 -10 20 0 11 -7 20 -15 20 -10 0 -15 11 -15 35 0 19 -4 35 -10 35
-6 0 -10 47 -10 120 0 73 4 120 10 120 6 0 10 14 10 31 0 30 19 59 39 59 6 0
11 20 11 45 0 25 -4 45 -10 45 -5 0 -10 15 -10 33 0 18 -7 42 -15 53 -8 10
-15 36 -15 57 0 20 -4 37 -10 37 -5 0 -10 18 -10 40 0 22 -4 40 -10 40 -5 0
-10 15 -10 34 0 19 -7 41 -15 50 -8 8 -15 28 -15 45 0 17 -4 31 -10 31 -5 0
-10 23 -10 50 0 28 -4 50 -10 50 -5 0 -10 22 -10 49 0 27 -7 65 -15 84 -8 20
-15 65 -15 101 0 44 5 69 15 80 10 9 15 34 15 70 0 31 5 56 10 56 6 0 10 20
10 45 0 25 5 45 10 45 6 0 10 15 10 34 0 18 7 39 15 46 8 7 15 25 15 41 0 16
5 29 10 29 6 0 10 14 10 30 0 17 5 30 10 30 6 0 10 9 10 21 0 11 7 27 15 35 8
9 15 26 15 40 0 13 5 24 10 24 6 0 10 6 10 14 0 18 32 76 43 76 4 0 7 7 7 15
0 8 5 15 10 15 6 0 10 9 10 20 0 11 5 20 10 20 6 0 10 7 10 15 0 8 11 25 25
39 14 14 25 28 25 31 0 8 27 35 35 35 8 0 35 27 35 35 0 8 27 35 35 35 3 0 17
11 31 25 14 14 31 25 39 25 8 0 15 5 15 10 0 6 9 10 20 10 11 0 20 5 20 10 0
6 7 10 15 10 8 0 15 4 15 10 0 5 11 12 25 16 14 3 25 10 25 15 0 5 14 9 30 9
17 0 30 5 30 10 0 6 11 10 24 10 13 0 26 7 30 15 3 9 18 15 36 15 16 0 30 5
30 10 0 6 16 10 35 10 19 0 35 5 35 10 0 6 19 10 43 10 23 0 51 7 61 15 11 8
39 15 62 15 24 0 46 5 49 10 3 6 50 10 106 10 59 0 99 4 99 10 0 6 70 10 190
10 120 0 190 -4 190 -10 0 -6 36 -10 89 -10 50 0 93 -4 96 -10 3 -5 27 -10 53
-10 26 0 56 -7 66 -15 11 -8 39 -15 63 -15 24 0 43 -4 43 -10 0 -5 14 -10 30
-10 17 0 38 -4 48 -8 9 -5 32 -16 50 -25 19 -9 42 -17 53 -17 10 0 19 -4 19
-10 0 -5 14 -10 30 -10 17 0 30 -4 30 -9 0 -5 11 -12 25 -15 14 -4 25 -11 25
-16 0 -6 7 -10 15 -10 8 0 15 -4 15 -10 0 -5 9 -10 20 -10 11 0 20 -4 20 -9 0
-5 8 -12 19 -16 10 -3 33 -19 50 -35 17 -17 35 -30 41 -30 5 0 10 -5 10 -11 0
-6 20 -30 45 -53 25 -24 45 -51 45 -60 0 -9 5 -16 10 -16 6 0 10 -7 10 -15 0
-8 7 -15 15 -15 8 0 15 -9 15 -20 0 -11 5 -20 10 -20 6 0 10 -7 10 -15 0 -8 5
-15 10 -15 6 0 10 -7 10 -15 0 -9 11 -33 25 -55 14 -22 25 -51 25 -65 0 -14 5
-25 10 -25 6 0 10 -9 10 -21 0 -11 7 -27 15 -35 8 -9 15 -26 15 -40 0 -13 5
-24 10 -24 6 0 10 -16 10 -35 0 -19 5 -35 10 -35 6 0 10 -15 10 -34 0 -19 7
-41 15 -50 8 -8 15 -28 15 -45 0 -16 5 -33 10 -36 6 -3 10 -35 10 -71 0 -36 4
-64 10 -64 6 0 10 -32 10 -75 0 -43 -4 -75 -10 -75 -6 0 -10 -28 -10 -64 0
-36 -4 -68 -10 -71 -5 -3 -10 -24 -10 -46 0 -23 -7 -47 -15 -55 -8 -9 -15 -31
-15 -50 0 -19 -4 -34 -10 -34 -5 0 -10 -16 -10 -35 0 -19 -4 -35 -10 -35 -5 0
-10 -20 -10 -44 0 -30 -5 -46 -15 -50 -10 -3 -15 -19 -15 -46 0 -22 -4 -40
-10 -40 -5 0 -10 -22 -10 -50 0 -27 -4 -50 -10 -50 -5 0 -10 -19 -10 -43 0
-31 5 -46 20 -57 11 -8 20 -24 20 -35 0 -12 7 -30 15 -41 21 -28 21 -216 0
-238 -8 -8 -15 -28 -15 -45 0 -17 -4 -31 -10 -31 -5 0 -10 -9 -10 -21 0 -22
-22 -49 -39 -49 -6 0 -11 -5 -11 -10 0 -12 -45 -60 -55 -60 -8 0 -35 -27 -35
-35 0 -8 -27 -35 -35 -35 -12 0 -35 -29 -35 -45 0 -9 -9 -26 -21 -38 -11 -12
-23 -34 -26 -49 -3 -16 -9 -28 -14 -28 -5 0 -9 -15 -9 -34 0 -19 -4 -38 -10
-41 -5 -3 -10 -18 -10 -33 0 -15 -7 -36 -15 -46 -8 -11 -15 -28 -15 -38 0 -10
-4 -18 -10 -18 -5 0 -10 -11 -10 -25 0 -14 -4 -25 -10 -25 -5 0 -10 -9 -10
-20 0 -11 -7 -23 -15 -26 -8 -4 -15 -15 -15 -25 0 -10 -4 -19 -10 -19 -5 0
-10 -11 -10 -25 0 -14 -4 -25 -8 -25 -5 0 -17 -16 -28 -35 -10 -19 -22 -35
-26 -35 -5 0 -8 -9 -8 -21 0 -11 -6 -27 -12 -34 -32 -36 -38 -46 -38 -65 0
-11 -4 -20 -10 -20 -5 0 -10 -20 -10 -45 0 -25 -4 -45 -10 -45 -6 0 -10 -30
-10 -70 0 -40 4 -70 10 -70 6 0 10 -16 10 -35 0 -19 5 -35 10 -35 6 0 10 -11
10 -24 0 -14 7 -31 15 -40 8 -8 15 -19 15 -25 0 -6 5 -11 10 -11 6 0 10 -7 10
-15 0 -9 20 -35 45 -59 25 -25 45 -49 45 -55 0 -6 10 -16 23 -22 12 -7 41 -32
64 -56 23 -24 47 -43 53 -43 5 0 10 -4 10 -9 0 -5 14 -14 30 -21 17 -7 30 -19
30 -26 0 -8 10 -14 21 -14 12 0 29 -8 38 -19 9 -10 26 -21 39 -25 12 -4 22
-12 22 -17 0 -5 7 -9 15 -9 8 0 15 -4 15 -10 0 -5 9 -10 20 -10 11 0 20 -4 20
-10 0 -5 9 -10 20 -10 11 0 23 -7 26 -15 4 -8 15 -15 25 -15 10 0 19 -4 19
-10 0 -5 11 -10 25 -10 14 0 25 -4 25 -10 0 -5 11 -12 25 -16 14 -3 25 -10 25
-15 0 -5 9 -9 20 -9 11 0 20 -4 20 -10 0 -5 11 -10 25 -10 14 0 25 -4 25 -10
0 -5 9 -10 20 -10 11 0 23 -7 26 -15 4 -9 19 -15 35 -15 16 0 29 -4 29 -10 0
-5 11 -10 25 -10 14 0 25 -4 25 -10 0 -5 9 -10 20 -10 11 0 23 -7 26 -15 4 -9
19 -15 40 -15 19 0 34 -4 34 -10 0 -5 11 -10 25 -10 14 0 25 -4 25 -10 0 -5 9
-10 19 -10 11 0 26 -7 35 -15 8 -8 24 -15 35 -15 12 0 21 -4 21 -10 0 -5 11
-10 25 -10 14 0 25 -4 25 -10 0 -5 9 -10 20 -10 11 0 23 -7 26 -15 4 -8 17
-15 30 -15 13 0 24 -4 24 -10 0 -5 9 -10 20 -10 11 0 20 -4 20 -10 0 -5 11
-12 25 -16 14 -3 25 -10 25 -15 0 -5 9 -9 20 -9 11 0 20 -4 20 -10 0 -5 5 -10
11 -10 6 0 17 -6 24 -13 30 -26 44 -37 50 -37 3 0 17 -10 30 -22 36 -34 53
-48 60 -48 3 0 31 -25 61 -55 31 -30 60 -55 65 -55 5 0 9 -5 9 -10 0 -6 25
-35 55 -65 30 -29 55 -58 55 -64 0 -6 7 -11 15 -11 8 0 15 -9 15 -20 0 -11 5
-20 10 -20 6 0 10 -5 10 -11 0 -6 6 -17 13 -24 29 -33 37 -45 37 -55 0 -5 5
-10 10 -10 6 0 10 -9 10 -20 0 -11 5 -20 10 -20 6 0 10 -7 10 -15 0 -8 3 -15
6 -15 9 0 84 78 84 88 0 5 11 15 25 22 14 7 25 17 25 22 0 12 47 58 60 58 5 0
10 9 10 20 0 11 5 20 10 20 6 0 10 5 10 11 0 7 16 26 35 45 19 18 35 38 35 44
0 5 16 26 35 44 19 19 35 40 35 47 0 6 11 22 25 35 14 13 25 28 25 34 0 5 5
10 10 10 6 0 10 7 10 16 0 9 11 27 25 40 14 13 25 30 25 39 0 8 5 15 10 15 6
0 10 7 10 15 0 8 5 15 10 15 6 0 10 9 10 20 0 11 7 20 15 20 8 0 15 9 15 20 0
11 5 20 10 20 6 0 10 7 10 15 0 8 5 15 10 15 6 0 10 9 10 20 0 11 7 23 15 26
8 4 15 15 15 25 0 10 5 19 10 19 6 0 10 8 10 19 0 10 11 30 25 45 14 15 25 34
25 42 0 7 5 14 10 14 6 0 10 11 10 25 0 14 5 25 10 25 6 0 10 9 10 20 0 11 7
23 15 26 9 4 15 19 15 35 0 16 5 29 10 29 6 0 10 11 10 25 0 14 4 25 9 25 5 0
12 11 15 25 4 14 11 25 16 25 6 0 10 11 10 25 0 14 5 25 10 25 6 0 10 14 10
30 0 17 5 30 10 30 6 0 10 11 10 25 0 16 6 25 15 25 10 0 15 11 15 35 0 19 5
35 10 35 6 0 10 16 10 35 0 19 5 35 10 35 6 0 10 11 10 24 0 14 7 31 15 40 8
8 15 28 15 45 0 17 5 31 10 31 6 0 10 20 10 45 0 25 5 45 10 45 6 0 10 15 10
34 0 19 7 41 15 50 9 9 15 33 15 60 0 25 5 46 10 46 6 0 10 24 10 54 0 30 4
57 9 60 4 3 11 34 14 68 3 34 10 64 16 66 7 2 11 37 11 88 0 49 4 84 10 84 6
0 10 60 10 159 0 96 4 162 10 166 6 4 10 62 10 140 0 78 -4 136 -10 140 -6 4
-10 70 -10 166 0 99 -4 159 -10 159 -6 0 -10 35 -10 84 0 51 -4 86 -11 88 -6
2 -13 32 -16 66 -3 34 -10 65 -14 68 -5 3 -9 30 -9 60 0 30 -4 54 -10 54 -5 0
-10 21 -10 46 0 27 -6 51 -15 60 -8 9 -15 31 -15 50 0 19 -4 34 -10 34 -5 0
-10 20 -10 45 0 25 -4 45 -10 45 -5 0 -10 14 -10 31 0 17 -7 37 -15 45 -8 9
-15 26 -15 40 0 13 -4 24 -10 24 -5 0 -10 16 -10 35 0 19 -4 35 -10 35 -5 0
-10 16 -10 35 0 24 -5 35 -15 35 -9 0 -15 9 -15 25 0 14 -4 25 -10 25 -5 0
-10 14 -10 30 0 17 -4 30 -10 30 -5 0 -10 11 -10 25 0 14 -4 25 -8 25 -9 0
-42 70 -42 88 0 7 -4 12 -10 12 -5 0 -10 13 -10 29 0 16 -6 31 -15 35 -8 3
-15 15 -15 26 0 11 -4 20 -10 20 -5 0 -10 11 -10 25 0 14 -4 25 -10 25 -5 0
-10 7 -10 14 0 8 -11 27 -25 42 -14 15 -25 35 -25 45 0 11 -4 19 -10 19 -5 0
-10 9 -10 19 0 10 -7 21 -15 25 -8 3 -15 15 -15 26 0 11 -4 20 -10 20 -5 0
-10 7 -10 15 0 8 -4 15 -10 15 -5 0 -10 9 -10 20 0 11 -7 20 -15 20 -8 0 -15
9 -15 20 0 11 -4 20 -10 20 -5 0 -10 7 -10 15 0 8 -4 15 -10 15 -5 0 -10 7
-10 15 0 9 -11 26 -25 39 -14 13 -25 31 -25 40 0 9 -4 16 -10 16 -5 0 -10 5
-10 10 0 6 -11 21 -25 34 -14 13 -25 29 -25 35 0 7 -16 28 -35 47 -19 18 -35
39 -35 44 0 6 -16 26 -35 44 -19 19 -35 38 -35 45 0 6 -4 11 -10 11 -5 0 -10
9 -10 20 0 11 -5 20 -10 20 -13 0 -60 46 -60 58 0 5 -11 15 -25 22 -14 7 -25
18 -25 23 0 5 -20 28 -45 53 -25 24 -45 50 -45 59 0 8 -5 15 -11 15 -14 0 -39
25 -39 39 0 6 -7 11 -15 11 -9 0 -35 20 -59 45 -25 25 -48 45 -53 45 -5 0 -16
11 -23 25 -7 14 -17 25 -22 25 -12 0 -58 47 -58 60 0 5 -9 10 -20 10 -11 0
-20 5 -20 10 0 6 -5 10 -11 10 -7 0 -26 16 -45 35 -18 19 -38 35 -44 35 -5 0
-26 16 -44 35 -19 19 -40 35 -47 35 -6 0 -22 11 -35 25 -13 14 -28 25 -34 25
-5 0 -10 5 -10 10 0 6 -7 10 -16 10 -9 0 -27 11 -40 25 -13 14 -30 25 -39 25
-8 0 -15 5 -15 10 0 6 -7 10 -15 10 -8 0 -15 5 -15 10 0 6 -9 10 -20 10 -11 0
-20 7 -20 15 0 8 -9 15 -20 15 -11 0 -20 5 -20 10 0 6 -7 10 -15 10 -8 0 -15
5 -15 10 0 6 -9 10 -20 10 -11 0 -23 7 -26 15 -4 8 -15 15 -25 15 -10 0 -19 5
-19 10 0 6 -8 10 -19 10 -10 0 -30 11 -45 25 -15 14 -34 25 -42 25 -7 0 -14 5
-14 10 0 6 -11 10 -25 10 -14 0 -25 5 -25 10 0 6 -9 10 -20 10 -11 0 -23 7
-26 15 -4 9 -19 15 -35 15 -16 0 -29 5 -29 10 0 6 -5 10 -12 10 -18 0 -88 33
-88 42 0 4 -11 8 -25 8 -14 0 -25 5 -25 10 0 6 -13 10 -30 10 -16 0 -30 5 -30
10 0 6 -11 10 -25 10 -16 0 -25 6 -25 15 0 10 -11 15 -35 15 -19 0 -35 5 -35
10 0 6 -16 10 -35 10 -19 0 -35 5 -35 10 0 6 -11 10 -24 10 -14 0 -31 7 -40
15 -8 8 -28 15 -45 15 -17 0 -31 5 -31 10 0 6 -20 10 -45 10 -25 0 -45 5 -45
10 0 6 -15 10 -34 10 -19 0 -41 7 -50 15 -9 9 -33 15 -60 15 -25 0 -46 5 -46
10 0 6 -24 10 -54 10 -30 0 -57 4 -60 9 -3 4 -34 11 -68 14 -34 3 -64 10 -66
16 -2 7 -37 11 -88 11 -49 0 -84 4 -84 10 0 6 -60 10 -159 10 -96 0 -162 4
-166 10 -4 6 -62 10 -140 10 -78 0 -136 -4 -140 -10z"/>
</g>
</svg>
