<svg xmlns="http://www.w3.org/2000/svg" viewBox="0 0 182.48 182.48"><defs><style>.cls-1{fill:#fff;stroke:#8fc640;stroke-miterlimit:10;stroke-width:4.59px;}.cls-2{fill:#8fc640;}</style></defs><g id="Layer_2" data-name="Layer 2"><g id="Layer_1-2" data-name="Layer 1"><circle class="cls-1" cx="91.24" cy="91.24" r="88.94"/><path class="cls-2" d="M132.64,127.2a4.46,4.46,0,0,0-5,2.25c-.12.21-.12.49-.39.61a4.39,4.39,0,0,1-3.11-.59c-5-5-10.14-10-15.09-15.16-1.49-1.54-3-2.57-5.16-2.16h-.19c-.41.07-.53-.11-.52-.52,0-1.12,0-2.24,0-3.36,0-.5.15-.62.63-.61,1.8,0,3.61,0,5.41,0a1.69,1.69,0,0,1,1.37.57c3.53,3.56,7.09,7.09,10.62,10.65a2.27,2.27,0,0,0,1.81.76c1.12,0,2.24,0,3.36,0a1.25,1.25,0,0,1,1.36.76,4.41,4.41,0,0,0,4.75,2.18,4.59,4.59,0,0,0,3.56-3.85,4.52,4.52,0,0,0-2.67-4.69c-1.82-.79-4.09-.47-5.09,1.22-.88,1.48-2,1.47-3.3,1.41a4.82,4.82,0,0,0-.93,0,1.5,1.5,0,0,1-1.37-.57c-3.53-3.55-7.09-7.08-10.62-10.64a2.33,2.33,0,0,0-1.81-.76c-2.11,0-4.23,0-6.35,0-.54,0-.77-.07-.73-.69a27.11,27.11,0,0,0,0-3c0-.65.13-.83.8-.83,3.76,0,7.53,0,11.3,0a1.53,1.53,0,0,1,1.21.49c1.5,1.54,3,3,4.54,4.58a2.6,2.6,0,0,0,2.21.93c1-.07,2,0,3.08,0a1.3,1.3,0,0,1,1.44.78,4.36,4.36,0,0,0,4.76,2.14,4.57,4.57,0,0,0,3.53-3.87,4.5,4.5,0,0,0-2.78-4.7,4,4,0,0,0-5.07,1.35c-.78,1.36-1.75,1.38-3,1.32a9.56,9.56,0,0,0-1.31,0,1.33,1.33,0,0,1-1.13-.46c-1.48-1.52-3-3-4.47-4.51a3,3,0,0,0-2.45-1c-4,.06-7.91,0-11.86,0-.72,0-.89-.2-.84-.87a23.38,23.38,0,0,0,0-2.9c0-.64.2-.74.78-.74q11.34,0,22.69,0a.94.94,0,0,1,1,.59,4.43,4.43,0,0,0,4.93,2.32,4.51,4.51,0,0,0,0-8.78,4.37,4.37,0,0,0-4.94,2.28,1,1,0,0,1-1.07.62c-3.77,0-7.53,0-11.3,0s-7.6,0-11.39,0c-.58,0-.75-.12-.72-.71a27.11,27.11,0,0,0,0-3c0-.66.15-.81.81-.81,4.11,0,8.22,0,12.32,0a2.15,2.15,0,0,0,1.66-.68,34.51,34.51,0,0,0,2.93-3,5.67,5.67,0,0,1,5.8-2.33,1,1,0,0,1,.92.57,4.4,4.4,0,0,0,5,2.33,4.5,4.5,0,0,0,0-8.74,4.38,4.38,0,0,0-5,2.31.91.91,0,0,1-1,.57c-1.21,0-2.43,0-3.64,0a2.17,2.17,0,0,0-1.73.71c-1.59,1.63-3.21,3.22-4.81,4.83a1.25,1.25,0,0,1-1,.46q-5.84,0-11.68,0c-.56,0-.66-.19-.64-.69a28.76,28.76,0,0,0,0-3.08c0-.67.24-.74.8-.73,2.08,0,4.17,0,6.25,0a2.37,2.37,0,0,0,1.89-.8c2.93-3,6-5.8,8.8-8.89,1.6-1.76,3.27-2.67,5.63-2.3.54.08.86.14,1.14.67a4.34,4.34,0,0,0,5,2.19,4.42,4.42,0,0,0,3.33-4.49A4.47,4.47,0,0,0,132.65,60a4.39,4.39,0,0,0-5,2.26,1,1,0,0,1-1.06.64c-1.16,0-2.31,0-3.46,0a2.5,2.5,0,0,0-2.05.86c-3.5,3.54-7,7-10.55,10.57a1.29,1.29,0,0,1-1,.55c-1.93,0-3.86,0-5.79,0-.44,0-.58-.12-.57-.57,0-1,.06-2.06,0-3.08,0-.71.17-.94.87-.85a5,5,0,0,0,4.59-1.72C113.76,63.3,119,58.18,124.19,53c.88-.89,1.85-.42,2.78-.56.68-.1.63.58.86.92a4.51,4.51,0,0,0,4.86,1.94,4.46,4.46,0,0,0,3.4-4.07,4.51,4.51,0,0,0-3-4.55,4.21,4.21,0,0,0-5,1.63,2.11,2.11,0,0,1-2.38,1.14c-.22,0-.44,0-.65,0a2.91,2.91,0,0,0-2.62,1.06c-5.41,5.47-10.86,10.89-16.29,16.33a1.61,1.61,0,0,1-1.28.56c-1.6,0-1.6,0-1.62-1.58a4.48,4.48,0,0,0-9,0c0,1.31,0,2.61,0,3.92,0,.53-.14.68-.67.67-2.08,0-4.17,0-6.25,0-.53,0-.72-.15-.88-.65A7.38,7.38,0,0,0,75,65.77a.77.77,0,0,1-1.12,0q-6.27-4.83-12.6-9.62a.84.84,0,0,1-.36-1.18A7.44,7.44,0,0,0,52.56,45a7.43,7.43,0,0,0-6.06,6.17,7.58,7.58,0,0,0,3.38,7.48,7.32,7.32,0,0,0,8.39-.28.76.76,0,0,1,1.11.06c4.16,3.2,8.35,6.38,12.52,9.58.29.22.89.36.5,1s-.1,1.38-1.24,1.34c-3-.1-5.91-.06-8.87,0a1.14,1.14,0,0,1-1.32-1A7.45,7.45,0,0,0,47.49,68a7.09,7.09,0,0,0,.25,8,7.34,7.34,0,0,0,10.42,1.9.87.87,0,0,1,1.27,0c1.34,1.1,2.74,2.14,4.14,3.17.46.33.51.48,0,.84-1.36,1-2.71,2-4,3.06A1.05,1.05,0,0,1,58,85a7.28,7.28,0,0,0-8.61.22,7.46,7.46,0,0,0,8.74,12.1c.35-.24.6-.56,1.11-.15,1.43,1.16,2.89,2.26,4.37,3.35.46.33.4.48,0,.78-1.37,1-2.75,2-4.07,3.13a1,1,0,0,1-1.5,0,7.27,7.27,0,0,0-8.31,0,7.48,7.48,0,1,0,11.35,8.31c.16-.53.39-.63.89-.63,3.08,0,6.16.06,9.24,0,1.13,0,.86.88,1.2,1.38s-.22.68-.48.88c-4.15,3.19-8.31,6.34-12.44,9.53-.51.39-.81.45-1.34,0a7,7,0,0,0-5.2-1.32,7.5,7.5,0,1,0,8,4.91c-.22-.57-.17-.83.31-1.19q6.36-4.82,12.68-9.68a.73.73,0,0,1,1,0,7.4,7.4,0,0,0,11.55-4c.13-.41.24-.6.72-.59q3.23,0,6.44,0c.52,0,.63.17.61.64,0,.71,0,1.43,0,2.14a4.49,4.49,0,0,0,8.95.69c0-.16-.07-.36.18-.47a4.05,4.05,0,0,1,2.69.53c5.07,5.06,10.19,10.06,15.16,15.22,1.54,1.6,3.08,2.6,5.33,2.18.57-.1.86.13,1.14.65a4.37,4.37,0,0,0,5,2.19,4.49,4.49,0,0,0-.12-8.71Zm-1-10.56a1.49,1.49,0,0,1,0,3,1.49,1.49,0,0,1,0-3Zm0-13.44a1.56,1.56,0,0,1,1.49,1.48,1.58,1.58,0,0,1-1.49,1.49,1.56,1.56,0,0,1-1.48-1.49A1.55,1.55,0,0,1,131.61,103.2Zm0-13.45a1.49,1.49,0,1,1,0,3,1.49,1.49,0,0,1,0-3Zm0-13.45a1.56,1.56,0,0,1,1.53,1.44,1.58,1.58,0,0,1-1.45,1.53,1.49,1.49,0,0,1-.08-3Zm.08-13.45a1.49,1.49,0,1,1-.08,3,1.49,1.49,0,0,1,.08-3Zm-.05-13.44a1.49,1.49,0,1,1-1.47,1.5A1.56,1.56,0,0,1,131.6,49.41ZM53.94,56.86a4.48,4.48,0,1,1,4.45-4.45A4.55,4.55,0,0,1,53.94,56.86Zm0,19.43a4.48,4.48,0,1,1,4.46-4.45A4.56,4.56,0,0,1,53.93,76.29Zm0,19.42a4.48,4.48,0,1,1,4.46-4.45A4.55,4.55,0,0,1,53.93,95.71Zm0,19.43a4.48,4.48,0,1,1,4.41-4.5A4.56,4.56,0,0,1,54,115.14Zm0,19.42a4.48,4.48,0,1,1,4.43-4.48A4.56,4.56,0,0,1,54,134.56Zm25.4-67.23a4.48,4.48,0,1,1-4.52,4.48A4.56,4.56,0,0,1,79.36,67.33ZM74,77.76c.36-.28.58-.19.89,0a7.43,7.43,0,0,0,11.61-4c.14-.45.31-.56.74-.55,2.12,0,4.23,0,6.35,0,.52,0,.67.14.67.67,0,2.52,0,5,0,7.56s0,5,0,7.47c0,.6-.14.78-.76.77-2.08,0-4.17,0-6.25,0-.43,0-.6-.09-.75-.55a7.39,7.39,0,0,0-11.6-4,.66.66,0,0,1-1,0c-1.45-1.13-2.9-2.24-4.37-3.34-.38-.28-.41-.44,0-.73C71.06,80.05,72.55,78.92,74,77.76Zm9.78,13.49a4.48,4.48,0,1,1-4.5-4.49A4.54,4.54,0,0,1,83.79,91.25ZM61.07,75.39c-.33-.25-.35-.43-.26-.82a1.47,1.47,0,0,1,1.85-1.29c1.32.12,2.66,0,4,0,1.58,0,3.17,0,4.75,0,1,0,.62.94,1,1.37s0,.52-.26.71c-1.7,1.3-3.4,2.59-5.09,3.91a.61.61,0,0,1-.89,0C64.48,78,62.79,76.67,61.07,75.39Zm.08,12.22c1.64-1.27,3.3-2.52,4.94-3.8a.71.71,0,0,1,1,0c1.64,1.29,3.3,2.54,4.94,3.8.25.19.7.34.34.77s0,1.44-1.09,1.39c-1.58-.07-3.16,0-4.75,0s-3.1-.06-4.65,0c-1.11,0-.73-.93-1.1-1.38S60.9,87.8,61.15,87.61Zm-.06,7.22c-.3-.23-.56-.46-.25-.8s0-1.33.95-1.31c1.62,0,3.23,0,4.84,0s3.17,0,4.75,0c1.05,0,.65.92,1,1.35s0,.58-.3.78c-1.65,1.26-3.31,2.52-4.94,3.8a.72.72,0,0,1-1,0C64.46,97.37,62.78,96.1,61.09,94.83Zm11.3,13c-.35.43,0,1.36-1.07,1.31-1.57-.08-3.16,0-4.74,0s-3.11-.06-4.66,0c-1.11.06-.73-.92-1.1-1.37s.08-.58.33-.77c1.64-1.27,3.3-2.52,4.94-3.8a.7.7,0,0,1,1,0c1.63,1.28,3.29,2.53,4.94,3.79C72.37,107.25,72.74,107.45,72.39,107.88Zm6.91,7.26a4.48,4.48,0,1,1,4.49-4.42A4.55,4.55,0,0,1,79.3,115.14Zm14.2-6c-2.08,0-4.17,0-6.25,0-.43,0-.61-.1-.74-.56a7.42,7.42,0,0,0-11.61-3.94.65.65,0,0,1-1,0q-2.16-1.7-4.37-3.34c-.39-.29-.38-.44,0-.73,1.43-1,2.85-2.11,4.23-3.23a.86.86,0,0,1,1.26,0,7.4,7.4,0,0,0,10.54-2,6.18,6.18,0,0,0,.91-2c.1-.48.33-.55.75-.55,2.11,0,4.23,0,6.35,0,.53,0,.66.15.66.67,0,2.52,0,5,0,7.56s0,5,0,7.47C94.28,109,94.11,109.19,93.5,109.18Zm6.73,5.21c0,.13,0,.25,0,.37,0,1.15-.6,1.88-1.51,1.87s-1.47-.74-1.47-1.9q0-12.18,0-24.35,0-11.85,0-23.7c0-.28,0-.57,0-.84a1.49,1.49,0,1,1,3,0c0,.25,0,.5,0,.75Zm31.42,18.67a1.49,1.49,0,1,1,1.45-1.53A1.57,1.57,0,0,1,131.65,133.06Z"/></g></g></svg>