<svg xmlns="http://www.w3.org/2000/svg" viewBox="0 0 182.48 182.48"><defs><style>.cls-1{fill:#fff;stroke:#8fc640;stroke-miterlimit:10;stroke-width:4.59px;}.cls-2{fill:#8fc640;}</style></defs><g id="Layer_2" data-name="Layer 2"><g id="Layer_1-2" data-name="Layer 1"><circle class="cls-1" cx="91.24" cy="91.24" r="88.94"/><path class="cls-2" d="M110.47,80v5.83c0,1.42-.58,2.13-1.71,2.11s-1.63-.73-1.63-2.08q0-17.76,0-35.53c0-3.92-2-5.87-5.91-5.87H72.68c-3.65,0-5.69,2-5.69,5.67C67,51,67,52,67,52.9a1.59,1.59,0,0,1-1.64,1.55,1.54,1.54,0,0,1-1.65-1.4,24.16,24.16,0,0,1,.14-5.31A8.27,8.27,0,0,1,72,41.07h30.1a8.28,8.28,0,0,1,8.34,8.35q0,12.27,0,24.55a2.42,2.42,0,0,0,.77,1.91c6.45,6.45,12.87,12.94,19.32,19.4a11,11,0,0,1,3.35,8.14q0,18,0,35.94c0,1.24-.51,1.94-1.46,2a1.63,1.63,0,0,1-1.87-1.52c0-.31,0-.62,0-.94q0-17.7,0-35.42a7.91,7.91,0,0,0-2.43-5.88Q119.5,89,110.94,80.38Z"/><path class="cls-2" d="M104.41,114.15a13.06,13.06,0,0,1,1-4.84.93.93,0,0,0-.25-1.24c-2.12-2.06-4.2-4.17-6.29-6.27-2.25-2.26-3.66-4.9-3.4-8.19a13.78,13.78,0,0,1,4.7-9c.73-.7,1.55-.56,2.4.26,3,2.93,6.06,5.86,9.09,8.8l9.83,9.52a1.77,1.77,0,0,1,.52,2.24,1.6,1.6,0,0,1-1.74.87,2.24,2.24,0,0,1-1.29-.81c-5.63-5.46-11.27-10.9-16.86-16.39-.76-.74-1-.57-1.57.2-2.6,3.91-2.32,7.08,1,10.38l7,7c1.12,1.12,1.14,1.54.46,2.92a9.83,9.83,0,0,0,.87,10.62c.18.25.4.48.59.73a1.69,1.69,0,0,1-.23,2.42,1.72,1.72,0,0,1-2.42-.32A13.6,13.6,0,0,1,104.41,114.15Z"/><path class="cls-2" d="M85.71,121.34H72.14a8.32,8.32,0,0,1-8.5-8.51c0-1,0-2.08,0-3.13a1.67,1.67,0,1,1,3.33,0c0,.87,0,1.74,0,2.61,0,3.65,2,5.7,5.65,5.7H95.72c1.5,0,3,0,4.49,0,1.22,0,1.92.65,1.89,1.71a1.64,1.64,0,0,1-1.87,1.63Z"/><path class="cls-2" d="M103.78,133.91c0,1.85,0,3.69,0,5.54,0,1.24-.61,2-1.65,2s-1.69-.69-1.69-1.92c0-3.14,0-6.27,0-9.4a1.37,1.37,0,0,0-.82-1.47,13.22,13.22,0,0,1-3.31-2.51,1.69,1.69,0,1,1,2.28-2.49,16.13,16.13,0,0,0,4.2,2.87,1.69,1.69,0,0,1,1,1.68C103.77,130.08,103.78,132,103.78,133.91Z"/><path class="cls-2" d="M87,51.1H82.17a1.63,1.63,0,0,1-1.8-1.7,1.61,1.61,0,0,1,1.75-1.64h9.82a1.62,1.62,0,0,1,1.8,1.7,1.65,1.65,0,0,1-1.86,1.64Z"/><path class="cls-2" d="M87,114.65c-.59,0-1.19,0-1.78,0A1.61,1.61,0,0,1,83.71,113a1.59,1.59,0,0,1,1.51-1.67c1.21,0,2.43,0,3.65,0A1.6,1.6,0,0,1,90.4,113a1.62,1.62,0,0,1-1.51,1.67C88.27,114.68,87.64,114.65,87,114.65Z"/><path class="cls-2" d="M81.7,70.67A16.58,16.58,0,0,0,65.16,57.79a14.18,14.18,0,0,0-3.83.44A16.31,16.31,0,0,0,48.59,73.89a23.64,23.64,0,0,0,1.8,8.72c3.11,8,8,14.89,13.58,21.35a1.65,1.65,0,0,0,2.77-.08c1.48-1.76,3-3.53,4.32-5.37,3.91-5.25,7.42-10.74,9.57-17C81.85,78,82.55,74.39,81.7,70.67ZM77.07,81.4A63.87,63.87,0,0,1,67.7,97.31c-.65.86-1.33,1.7-2,2.55-.2.25-.35.54-.69.11C59.8,93.42,54.93,86.66,52.6,78.47c-1.4-4.91-.7-9.45,3-13.24a13.52,13.52,0,0,1,22.8,6.11C79.19,74.84,78.31,78.16,77.07,81.4Z"/><path class="cls-2" d="M65.34,66.15a8.37,8.37,0,1,0,8.34,8.47A8.34,8.34,0,0,0,65.34,66.15Zm0,13.38a5,5,0,1,1,5-5A5.1,5.1,0,0,1,65.31,79.53Z"/></g></g></svg>