<svg xmlns="http://www.w3.org/2000/svg" viewBox="0 0 182.48 182.48"><defs><style>.cls-1{fill:#fff;stroke:#8fc640;stroke-miterlimit:10;stroke-width:4.59px;}.cls-2{fill:#8fc640;}</style></defs><g id="Layer_2" data-name="Layer 2"><g id="Layer_1-2" data-name="Layer 1"><circle class="cls-1" cx="91.24" cy="91.24" r="88.94"/><path class="cls-2" d="M146.34,65.44a18.48,18.48,0,1,0-32.77,14.15,35.78,35.78,0,0,0,3,3.07c-6.6,4.84-13.12,9.62-19.63,14.43a.87.87,0,0,1-1.27,0c-3.31-2.48-6.66-4.91-10-7.35L58.68,70a1.68,1.68,0,0,1-.82-1.59,4.07,4.07,0,0,1,4.4-3.87c13.68.06,27.36,0,41.05,0,.32,0,.65,0,1,0,1.26-.08,1.92-.69,1.88-1.74s-.72-1.59-1.91-1.59q-21.28,0-42.57,0a7.14,7.14,0,0,0-7,6,30.54,30.54,0,0,0-.13,5.06c0,.61-.16.81-.78.78-.93,0-1.87,0-2.8,0a7,7,0,0,0-6.85,6A56,56,0,0,0,44,86.42c0,.59-.15.81-.77.79-1.51,0-3,0-4.54,0a2.75,2.75,0,0,0-2.74,1.22v.87a2.09,2.09,0,0,0,2.24,1.61c1.33,0,2.66,0,4,0s1.43.08,1.44,1.39q0,3.5,0,7c0,1.24-.08,1.3-1.38,1.32s-2.73-.06-4.09,0c-1,.06-1.88.24-2.2,1.37v1.29c.27,1.08,1.09,1.35,2,1.39,1.47.06,3,0,4.42,0,.88,0,1.22.31,1.21,1.2,0,3.09,0,6.19,0,9.28,0,.89-.33,1.22-1.21,1.2-1.47,0-2.95,0-4.42,0-1,0-1.78.31-2,1.39v1.3a2.65,2.65,0,0,0,2.43,1c1.44,0,2.89.08,4.32,0,1.13-.09,1.39.3,1.31,1.35-.1,1.26,0,2.52,0,3.78,0,4.6,3,7.64,7.64,7.66q9.62,0,19.23,0a4.71,4.71,0,0,0,1.06-.11,1.62,1.62,0,0,0-.1-3.16,4.82,4.82,0,0,0-1.07-.07H53.12a2.43,2.43,0,0,1-1.16-.09c.1-.29.35-.35.55-.47,3.83-2.48,7.66-4.94,11.48-7.43a2.93,2.93,0,0,1,1.7-.51q23.76,0,47.53,0a3,3,0,0,1,1.7.51c3.76,2.45,7.54,4.88,11.3,7.32.25.16.61.22.7.68h-47a4.07,4.07,0,0,0-1.39.11,1.63,1.63,0,0,0,0,3.09,4.18,4.18,0,0,0,1.49.14h37.49c2.88,0,5.76,0,8.64,0,4,0,7-2.52,7.42-6.27a40.8,40.8,0,0,0,.06-5.07.78.78,0,0,1,.54-.88c3.49-1.43,5-3.73,5-7.47q0-14.64,0-29.28a1.71,1.71,0,0,1,.62-1.48C145,78,147.28,72.28,146.34,65.44ZM57.93,73.51c2.08,1.51,4,2.94,6,4.38Q74,85.29,84.11,92.66c.72.53.91.75,0,1.32C75.73,99.36,67.35,104.79,59,110.2l-1,.62Zm-10.61,6.9a3.78,3.78,0,0,1,3.94-4c.82,0,1.66,0,2.48,0s.82.24.82.86c0,3.85,0,7.71,0,11.56s0,7.55,0,11.33c0,.75-.18,1-.94,1-1.8-.06-3.6,0-5.4,0-.66,0-.93-.11-.93-.87C47.33,93.59,47.3,87,47.32,80.41ZM51,126c-.82.53-1.66,1-2.44,1.59-.52.38-.74.18-1-.3a4.58,4.58,0,0,1-.31-1.9c0-6.72,0-13.45,0-20.17,0-.75.25-.88.92-.87,1.8,0,3.6,0,5.39,0,.74,0,1,.14,1,.93-.05,2.66,0,5.32,0,8a7.29,7.29,0,0,0,4.37,7.17,2.12,2.12,0,0,1,.32.26Zm79.15.61c-.08.43-.13.79-.72.41-3-2-6-3.88-9.24-6,3.42,0,6.52,0,9.63,0,.29,0,.49.06.48.42A37.12,37.12,0,0,1,130.16,126.6Zm5.21-11a4.16,4.16,0,0,1-4.05,2.15H96.76q-17.17,0-34.34,0a4.24,4.24,0,0,1-4.19-2.29.74.74,0,0,1,.31-1.13q14.37-9.22,28.69-18.51a1,1,0,0,1,1.31.08c1.92,1.46,3.87,2.87,5.81,4.29,1.52,1.11,2.29,1.12,3.79,0q3.19-2.31,6.34-4.67a1.16,1.16,0,0,1,1.58-.1q14.46,9.39,29,18.69C135.75,114.62,135.7,115,135.37,115.61Zm.36-4.88L108.15,92.92l3.48-2.57,7.3-5.35c.3-.22.53-.53,1-.29a18.3,18.3,0,0,0,15.77.26ZM128,83.3a15.19,15.19,0,1,1,15.31-15.13A15.21,15.21,0,0,1,128,83.3Z"/><path class="cls-2" d="M136,63.37a1.53,1.53,0,0,1-.46,1c-2.74,3.19-5.46,6.39-8.22,9.56a1.58,1.58,0,0,1-2.46.18q-2-1.65-3.94-3.36a1.65,1.65,0,0,1-.28-2.46,1.63,1.63,0,0,1,2.4,0c.72.59,1.45,1.18,2.12,1.83.51.5.81.44,1.26-.1,2.15-2.56,4.35-5.07,6.52-7.61a1.67,1.67,0,0,1,3.06,1Z"/></g></g></svg>