<svg xmlns="http://www.w3.org/2000/svg" viewBox="0 0 182.48 182.48"><defs><style>.cls-1{fill:#fff;stroke:#8fc640;stroke-miterlimit:10;stroke-width:4.59px;}.cls-2{fill:#8fc640;}</style></defs><g id="Layer_2" data-name="Layer 2"><g id="Layer_1-2" data-name="Layer 1"><circle class="cls-1" cx="91.24" cy="91.24" r="88.94"/><path class="cls-2" d="M91,68.51a23.58,23.58,0,0,1,22.29,19.35,22.77,22.77,0,0,1,.4,3.86c0,1.18-.6,1.89-1.59,1.92s-1.65-.57-1.69-1.8a20.33,20.33,0,0,0-19.93-20c-1.42-.06-2.12-.84-1.88-2C88.83,68.85,89.53,68.48,91,68.51Z"/><path class="cls-2" d="M104,91.69c0,1.16-.59,1.9-1.57,1.94s-1.7-.64-1.8-2.07a10.16,10.16,0,0,0-6.83-9.32,9.76,9.76,0,0,0-3.26-.61c-1.27,0-1.92-.7-1.89-1.74s.81-1.63,2-1.6A13.88,13.88,0,0,1,104,91.69Z"/><path class="cls-2" d="M124.3,55.38a4.62,4.62,0,0,0-.13-1.17A1.47,1.47,0,0,0,122.58,53a1.54,1.54,0,0,0-1.52,1.16,4.76,4.76,0,0,0-.11,1.5q0,39.45,0,78.9c0,.93-.17,1.25-1.19,1.24-13.39,0-26.77,0-40.15,0a8,8,0,0,0-1,0,1.51,1.51,0,0,0-1.46,1.57A1.55,1.55,0,0,0,78.68,139c.32,0,.65,0,1,0h40c.21,0,.43,0,.65,0,.46-.06.59.12.61.59a3.3,3.3,0,0,1-3.41,3.73q-26.29,0-52.59,0a3.3,3.3,0,0,1-3.45-3.48c0-.76.27-.86.92-.85,2.85,0,5.7,0,8.55,0,1.24,0,2-.63,2-1.62s-.76-1.62-2-1.62c-2.75,0-5.49,0-8.23,0-.94,0-1.25-.17-1.24-1.2q.06-18.88,0-37.77V43.29c0-3.18,1.08-4.24,4.29-4.24h5c2.52,0,2.59,0,2.5,2.46a4.61,4.61,0,0,0,5,5c7.46-.11,14.93,0,22.4,0,1.37,0,2.74,0,4.11,0a4.14,4.14,0,0,0,4.21-3.71,14.87,14.87,0,0,0,.08-2.91c0-.7.21-.83.85-.82,2.49,0,5,0,7.47,0a3.27,3.27,0,0,1,3.5,3.52c0,1.41,0,2.81,0,4.22a1.69,1.69,0,1,0,3.33,0c0-1.48,0-3,0-4.44A6.57,6.57,0,0,0,119.47,36c-.14,0-.29,0-.31-.22H63.32c0,.06,0,.15-.1.17-3.5,1.24-5,3.36-5,7q0,48.21,0,96.43a7,7,0,0,0,7.19,7.26q25.92-.17,51.83,0a6.92,6.92,0,0,0,7.14-7.2Q124.26,97.44,124.3,55.38ZM76.88,39.2c.51-.44,1.65-.15,2.51-.15,8.47,0,16.94,0,25.42,0,.77,0,1,.14,1,1-.06,3.57.31,3.16-3.21,3.17H78.16c-1.29,0-1.49-.17-1.46-1.42C76.72,40.88,76.29,39.7,76.88,39.2Z"/><path class="cls-2" d="M110.21,102.39c-2.76-1.88-5.54-3.75-8.35-5.56a3.26,3.26,0,0,0-4.6.84,19.89,19.89,0,0,0-1.32,1.84c-.31.49-.55.58-1.09.26A36.3,36.3,0,0,1,82.47,87.36c-.26-.43-.31-.7.19-1A17.46,17.46,0,0,0,84.59,85a3.28,3.28,0,0,0,.81-4.61Q82.67,76.14,79.83,72a3.31,3.31,0,0,0-4.41-1c-.82.44-1.58,1-2.42,1.42C69.75,74,68.73,76.7,68.75,80A19.83,19.83,0,0,0,71.69,90a58.5,58.5,0,0,0,19.88,20.2,20.58,20.58,0,0,0,10.11,3.34c3.75,0,5.9-.85,7.21-2.81.84-1.26,1.61-2.56,2.34-3.88A3.31,3.31,0,0,0,110.21,102.39ZM108,105.82a6.39,6.39,0,0,0-1,1.56,4.11,4.11,0,0,1-4.13,2.83,18.21,18.21,0,0,1-9.91-3,55.21,55.21,0,0,1-18.54-19,17.19,17.19,0,0,1-2.41-7.3,11.16,11.16,0,0,1,.21-3,2.87,2.87,0,0,1,1.54-2.09c.94-.53,1.86-1.1,2.77-1.68.38-.25.59-.2.85.19q2.44,3.75,5,7.46c.29.42.19.61-.17.85-.57.38-1.12.8-1.67,1.21a3.41,3.41,0,0,0-1.1,4.89c2,3.74,4.86,6.68,7.87,9.54a27.63,27.63,0,0,0,6.17,4.51,3.45,3.45,0,0,0,4.91-1.07c.54-.7.87-1.9,1.67-2s1.45.81,2.17,1.28c1.83,1.21,3.64,2.45,5.48,3.64C108.24,105,108.47,105.25,108,105.82Z"/></g></g></svg>