<svg xmlns="http://www.w3.org/2000/svg" viewBox="0 0 182.48 182.48"><defs><style
    >.cls-1{fill:#fff;stroke:#8fc640;stroke-miterlimit:10;stroke-width:4.59px;}.cls-2{fill:#8fc640;}</style></defs><g
    id="Layer_2"
    data-name="Layer 2"
  ><g id="Layer_1-2" data-name="Layer 1"><circle
        class="cls-1"
        cx="91.24"
        cy="91.24"
        r="88.94"
      /><path
        class="cls-2"
        d="M139.22,72.25c3.85-1.31,6.35-3.82,6.89-8V55c-.16-.06-.16-.21-.19-.34a9.63,9.63,0,0,0-9.25-8q-12.19-.09-24.41,0a9.71,9.71,0,0,0-9.2,7.56,28.8,28.8,0,0,0-.23,5.87c0,.6-.15.8-.77.79q-10.77,0-21.53,0c-.69,0-.83-.24-.81-.87,0-1.35,0-2.71,0-4.07a9.69,9.69,0,0,0-9.27-9.28q-12.32-.11-24.63,0a9.66,9.66,0,0,0-9.14,7.75c-.51,2.71-.19,5.48-.21,8.22a9.7,9.7,0,0,0,7.41,9.42c.87.21,1,.56,1,1.28,0,3.68,0,7.36,0,11,0,2.57,0,5.14,0,7.72a1.57,1.57,0,0,0,1.94,1.68c1-.23,1.29-1,1.28-1.93,0-5.64,0-11.28,0-16.92,0-2.55,0-2.5,2.51-2.57.94,0,1.15.22,1.15,1.16q0,22.55,0,45.09c0,.84.37,1.95-.15,2.47s-1.63.06-2.47.17-1-.23-1-1.05c0-6.93,0-13.85,0-20.78a7.69,7.69,0,0,0,0-1A1.5,1.5,0,0,0,46.43,97a1.52,1.52,0,0,0-1.62,1.39,5.12,5.12,0,0,0,0,1c0,7,0,14,0,21,0,.68-.14.94-.87.89-1.06-.06-2.14,0-3.21,0a4.33,4.33,0,0,0-4.3,4.39,9.41,9.41,0,0,0,1.39,5.08c2.21,3.61,5.5,5.12,9.69,5.11q43.76,0,87.5,0l1.18,0a10,10,0,0,0,7.81-4,13.79,13.79,0,0,0,2.11-4.59v-2.79a4.32,4.32,0,0,0-4.14-3.5c-.75-.07-1.5,0-2.25,0-1.6,0-1.63,0-1.63-1.6q0-9.69,0-19.37a7.51,7.51,0,0,0-.08-1.5,1.87,1.87,0,0,0-3.71,0,7.17,7.17,0,0,0-.09,1.6V119a7.63,7.63,0,0,1,0,1.17.67.67,0,0,1-.49.62c-1.58.55-2.44,0-2.45-1.67V74.62a7.76,7.76,0,0,1,0-1.18c0-.25.06-.53.35-.6a3.41,3.41,0,0,1,2.21,0c.58.26.37,1,.37,1.46,0,5.56,0,11.13,0,16.69a8,8,0,0,0,.06,1.39,1.93,1.93,0,0,0,1.81,1.68A1.9,1.9,0,0,0,138,92.63a6.15,6.15,0,0,0,.13-1.71c0-5.63,0-11.27,0-16.91A1.54,1.54,0,0,1,139.22,72.25ZM79.5,64.67c.1-.68.63-.45,1-.45,4,0,7.92,0,11.89,0,3.14,0,6.28,0,9.42,0,.77,0,1.24.06,1.37,1a11.85,11.85,0,0,0,.8,2.24H78.51A12,12,0,0,0,79.5,64.67Zm-1.7,6q13.92,0,27.84,0a4.31,4.31,0,0,1,2.64.61,2.71,2.71,0,0,0,1.26.54c1.46.09,1.59,1,1.52,2.15a30.77,30.77,0,0,0,0,4,3.91,3.91,0,0,0,7.28,1.92c1.53-2.23,3.07-4.46,4.54-6.73a1.51,1.51,0,0,1,1.55-.8c.85.06,1.71,0,2.57,0,.46,0,.66.14.6.61,0,.11,0,.21,0,.32v38.9a26.17,26.17,0,0,0-8.29-2.81c-2.46-.32-5,0-7.48-.17-3.61-.29-6.91.77-10.14,2.08-3.47,1.39-5.13,4.12-5.17,7.85,0,2.08,0,2.08-2.14,2.08-2.54,0-5.07,0-7.6,0-.66,0-.87-.16-.85-.83a11.78,11.78,0,0,0-.17-3.3,8.27,8.27,0,0,0-5.39-6,24.48,24.48,0,0,0-10.73-1.87c-2.13.15-4.3-.15-6.41.14A28.15,28.15,0,0,0,55,112.16c-.24-.19-.1-.5-.1-.75q0-19,0-38c0-.76.16-.94,1-1.05a4.35,4.35,0,0,1,5,2.61A42.76,42.76,0,0,0,64.25,80a3.83,3.83,0,0,0,4.27,1.7,3.76,3.76,0,0,0,2.9-3.55c.12-1.7.09-3.42.09-5.13,0-.53.06-.85.71-.93a3.74,3.74,0,0,0,1.59-.56A6.86,6.86,0,0,1,77.8,70.72Zm.27,53.93c.17-.27.53-.11.79-.11h24.81c.27,0,.63-.15.8.1s-.09.61-.24.86a3.21,3.21,0,0,1-3.11,1.44H84c-1,0-2,0-3,0a2.92,2.92,0,0,1-2.7-1.42C78.17,125.26,77.88,125,78.07,124.65Zm-9.27-3.4H56.39c-1.49,0-1.48,0-1.49-1.55a7.28,7.28,0,0,1,.28-2.32,5.17,5.17,0,0,1,3.3-3.24,20.25,20.25,0,0,1,9.26-1.56,13.24,13.24,0,0,0,2.67,0c3.18-.33,6.12.57,9,1.67A4.93,4.93,0,0,1,82.72,119c0,2.25,0,2.25-2.26,2.25Zm31.91,0c-.66,0-1-.1-.9-.85s0-1.66.11-2.45a5.07,5.07,0,0,1,3.47-3.84,20.59,20.59,0,0,1,9.27-1.54,11.19,11.19,0,0,0,1.92,0A20.82,20.82,0,0,1,124,114.1a5.21,5.21,0,0,1,3.68,5.05c0,2.1,0,2.1-2,2.1h-12C109.34,121.25,105,121.23,100.71,121.26Zm-54-52.09a6.68,6.68,0,0,1-7.06-7,40.23,40.23,0,0,1,.18-6.94,6.49,6.49,0,0,1,6.25-5.3q12-.06,24,0a6.6,6.6,0,0,1,6.43,6.43c0,1.07,0,2.14,0,3.49a26.62,26.62,0,0,1-.15,4,6.64,6.64,0,0,1-6.22,5.36c-1.37.09-1.89.61-1.91,2,0,2,0,3.92,0,5.88,0,.52.29,1.26-.48,1.47s-.85-.52-1.14-.93C65,75.32,63.39,73,61.9,70.7A3,3,0,0,0,59,69.14C54.92,69.22,50.82,69.18,46.72,69.17Zm94.41,55.36c1.62,0,2,.42,1.66,2a7,7,0,0,1-7.18,6H47.05a7,7,0,0,1-7.34-6.22c-.21-1.33.18-1.82,1.49-1.82q16.34,0,32.66,0c.63,0,.83.19,1,.81a6,6,0,0,0,5.75,4.85q10.71.07,21.42,0a6,6,0,0,0,5.75-4.84c.15-.84.56-.81,1.16-.81q9.21,0,18.42,0Zm-5-55.36c-4.24,0-8.49,0-12.73,0a2.72,2.72,0,0,0-2.64,1.38c-1.56,2.43-3.22,4.79-4.84,7.17-.27.39-.46,1-1.09.84s-.46-.87-.47-1.36c0-2,0-3.92,0-5.88,0-1.55-.48-2-2-2.14a6.63,6.63,0,0,1-6.25-6.73c0-2.42-.29-4.86.17-7.25a6.5,6.5,0,0,1,6.47-5.29c3.93,0,7.85,0,11.77,0h11.46a6.67,6.67,0,0,1,7,6.9c0,1.92.05,3.85,0,5.78A6.67,6.67,0,0,1,136.15,69.17Z"
      /><path
        class="cls-2"
        d="M114,86h-.6a8.73,8.73,0,0,0-8.73,8.73v2.49a8.73,8.73,0,0,0,8.73,8.73h.6a8.72,8.72,0,0,0,8.72-8.73V94.75A8.72,8.72,0,0,0,114,86Zm6.36,10.89a6.44,6.44,0,0,1-6.44,6.45h-.45a6.45,6.45,0,0,1-6.44-6.45V95.07a6.44,6.44,0,0,1,6.44-6.44H114a6.44,6.44,0,0,1,6.44,6.44Z"
      /><path
        class="cls-2"
        d="M69.12,86h-.6a8.73,8.73,0,0,0-8.73,8.73v2.49A8.73,8.73,0,0,0,68.52,106h.6a8.72,8.72,0,0,0,8.72-8.73V94.75A8.72,8.72,0,0,0,69.12,86Zm6.36,10.89A6.44,6.44,0,0,1,69,103.36h-.45a6.45,6.45,0,0,1-6.44-6.45V95.07a6.44,6.44,0,0,1,6.44-6.44H69a6.44,6.44,0,0,1,6.44,6.44Z"
      /><rect
        class="cls-2"
        x="45.26"
        y="54.69"
        width="25.59"
        height="3.28"
        rx="1.64"
      /><rect
        class="cls-2"
        x="45.26"
        y="60.11"
        width="14.43"
        height="3.28"
        rx="1.64"
      /><rect
        class="cls-2"
        x="113.73"
        y="54.69"
        width="25.59"
        height="3.28"
        rx="1.64"
      /><rect
        class="cls-2"
        x="113.73"
        y="60.11"
        width="14.43"
        height="3.28"
        rx="1.64"
      /></g></g></svg>
