<svg xmlns="http://www.w3.org/2000/svg" viewBox="0 0 182.48 182.48"><defs><style
    >.cls-1{fill:#fff;stroke:#8fc640;stroke-miterlimit:10;stroke-width:4.59px;}.cls-2{fill:#8fc640;}</style></defs><g
    id="Layer_2"
    data-name="Layer 2"
  ><g id="Layer_1-2" data-name="Layer 1"><circle
        class="cls-1"
        cx="91.24"
        cy="91.24"
        r="88.94"
      /><path
        class="cls-2"
        d="M140,54.09c-2.14-4.17-5.43-6.47-10.2-6.47H58.55c-2.21,0-4.43-.06-6.64,0-5,.17-10,4.73-10,10.14.06,17.46,0,34.91,0,52.37a8.24,8.24,0,0,0,.48,3,10.91,10.91,0,0,0,10.28,7.08q11.88,0,23.77,0a2.42,2.42,0,0,1,2.27,1.13c1,1.53,2.15,3,3.23,4.43q2.5,3.42,5,6.81a5.13,5.13,0,0,0,4.43,2.28,5.36,5.36,0,0,0,4.29-2.39c2.73-3.64,5.49-7.27,8.18-10.94a3,3,0,0,1,2.67-1.33c7.6,0,15.21-.11,22.81.07,5.28.13,11-3.85,11.24-9.4V57A12.56,12.56,0,0,0,140,54.09Zm-86.92-.4h47.46q14.53,0,29.07,0a5.64,5.64,0,0,1,2.78.65l-5.12,4.26L94.82,85.51c-2.37,2-4.63,2-7,0L50.66,54.69l-.38-.34A4.84,4.84,0,0,1,53.06,53.69Zm-4.93,56.78c-.47-.88-.72-42.68-.31-50.58l29.8,24.73Q62.83,97.58,48.13,110.47Zm80.52,3.67c-7.58,0-15.15,0-22.72,0a7.53,7.53,0,0,0-6.63,3.33c-2.39,3.29-4.87,6.52-7.31,9.77-.7.93-.7.93-1.36,0-2.42-3.28-4.86-6.53-7.23-9.83a7.44,7.44,0,0,0-6.55-3.3c-7.63.06-15.27,0-22.9,0H52.78l4.6-4.06Q69.47,99.49,81.54,88.9c.48-.43.74-.46,1.22,0a14.23,14.23,0,0,0,5.46,3.47,10.47,10.47,0,0,0,9.62-1.8c.71-.54,1.42-1.1,2.08-1.71.41-.39.64-.37,1.07,0q7.58,6.69,15.18,13.33l13.1,11.48.53.5Zm6-3.48L105,84.63,134.69,60Z"
      /></g></g></svg>
