<svg xmlns="http://www.w3.org/2000/svg" viewBox="0 0 182.48 182.48"><defs><style>.cls-1{fill:#fff;stroke:#8fc640;stroke-miterlimit:10;stroke-width:4.59px;}.cls-2{fill:#8fc640;}</style></defs><g id="Layer_2" data-name="Layer 2"><g id="Layer_1-2" data-name="Layer 1"><circle class="cls-1" cx="91.24" cy="91.24" r="88.94"/><path class="cls-2" d="M117,75.07c-1.78-3.47-4.53-5.39-8.5-5.39H49.06c-1.84,0-3.69-.05-5.54,0-4.2.14-8.38,3.94-8.36,8.46.05,14.56,0,29.12,0,43.69a6.74,6.74,0,0,0,.4,2.51,9.08,9.08,0,0,0,8.57,5.91q9.93,0,19.84,0a2,2,0,0,1,1.89.95c.83,1.27,1.79,2.46,2.7,3.69,1.39,1.9,2.79,3.8,4.2,5.68a4.27,4.27,0,0,0,3.69,1.91,4.49,4.49,0,0,0,3.58-2c2.28-3,4.58-6.06,6.83-9.13a2.46,2.46,0,0,1,2.23-1.1c6.34,0,12.69-.1,19,.06,4.4.1,9.16-3.22,9.37-7.85v-45A10.08,10.08,0,0,0,117,75.07Zm-72.51-.33h39.6q12.12,0,24.25,0a4.7,4.7,0,0,1,2.32.54l-4.28,3.56L79.32,101.29c-2,1.64-3.87,1.66-5.84,0l-31-25.73-.32-.29A4.07,4.07,0,0,1,44.48,74.74Zm-4.12,47.37c-.38-.73-.59-35.61-.25-42.19L65,100.54Zm67.18,3.06c-6.32,0-12.63,0-19,0a6.31,6.31,0,0,0-5.53,2.78c-2,2.75-4.06,5.44-6.1,8.15-.58.78-.59.78-1.14,0-2-2.73-4-5.45-6-8.21a6.2,6.2,0,0,0-5.46-2.74c-6.37,0-12.74,0-19.11,0h-1c1.37-1.21,2.6-2.3,3.84-3.38Q58.17,113,68.24,104.11c.4-.35.62-.38,1,0a12,12,0,0,0,4.55,2.9,8.78,8.78,0,0,0,8-1.5,21.89,21.89,0,0,0,1.73-1.43c.35-.33.54-.31.89,0q6.33,5.58,12.67,11.12l10.93,9.58.44.41Zm5-2.9L87.81,100.55,112.59,80Z"/><path class="cls-2" d="M143.25,53.3H134V44.07a4.07,4.07,0,1,0-8.13,0V53.3h-9.24a4.07,4.07,0,0,0-4.06,4.07h0a4.07,4.07,0,0,0,4.06,4.07h9.24v9.23a4.07,4.07,0,1,0,8.13,0V61.44h9.23a4.07,4.07,0,0,0,4.07-4.07h0A4.07,4.07,0,0,0,143.25,53.3Z"/></g></g></svg>