<svg xmlns="http://www.w3.org/2000/svg" viewBox="0 0 182.48 182.48"><defs><style>.cls-1{fill:#fff;stroke:#8fc640;stroke-miterlimit:10;stroke-width:4.59px;}.cls-2{fill:#8fc640;}</style></defs><g id="Layer_2" data-name="Layer 2"><g id="Layer_1-2" data-name="Layer 1"><circle class="cls-1" cx="91.24" cy="91.24" r="88.94"/><path class="cls-2" d="M91.19,133.17H66c-1.47,0-2.15-.43-2.16-1.37s.72-1.44,2.13-1.44h50.77c1.24,0,2,.55,1.94,1.45s-.68,1.36-1.91,1.36Z"/><path class="cls-2" d="M134.07,53.16c-.83-2.47-2.87-3.82-5.78-3.82H91.4c-12.35,0-24.71,0-37.06,0a5.76,5.76,0,0,0-6,5.75q-.1,25-.2,50.06a5.4,5.4,0,0,0,.3,1.83c.84,2.44,2.89,3.8,5.8,3.8H82.37c1.25,0,1.26,0,1,1.19a10.64,10.64,0,0,1-.32,1.38c-1.2,4.07-3.76,7.21-6.81,10-.72.66-1.49,1.27-2.24,1.9a1.38,1.38,0,0,0-.42,1.54,1.36,1.36,0,0,0,1.18,1,5.31,5.31,0,0,0,.8,0h31.27c.18,0,.35,0,.53,0a1.44,1.44,0,0,0,1-2.58c-.76-.66-1.52-1.33-2.23-2-3.22-3.24-5.81-6.85-6.94-11.39-.23-.94.06-1,.85-1q13.63,0,27.26,0c.48,0,1,0,1.43,0a5.58,5.58,0,0,0,5.43-5.77q.1-24.94.2-49.88A5.92,5.92,0,0,0,134.07,53.16Zm-32.33,69.36c.65.79,1.36,1.53,2.1,2.37h-25a2.15,2.15,0,0,1,.66-.77A23.5,23.5,0,0,0,86,113.54a15.64,15.64,0,0,0,.41-2.27c0-.42.21-.52.62-.52h8.63c.3,0,.56,0,.63.42A23.25,23.25,0,0,0,101.74,122.52ZM131.33,105a2.8,2.8,0,0,1-2.77,3c-.26,0-.53,0-.8,0H54.45a4.76,4.76,0,0,1-1.76-.22A2.76,2.76,0,0,1,51,104.91q.09-17.67.17-35.36c0-4.72,0-9.44,0-14.16,0-2.15,1.07-3.23,3.22-3.23h73.76a4.75,4.75,0,0,1,1.59.15,2.75,2.75,0,0,1,1.81,2.77Q131.43,80,131.33,105Z"/><path class="cls-2" d="M82.74,87.62a9.94,9.94,0,0,0-3.67,5.55,21.09,21.09,0,0,0-.35,5.14c0,.38.18.43.5.43H89.37c.35,0,.47-.12.46-.46a13.65,13.65,0,0,1,0-1.43,1.14,1.14,0,0,1,1.21-1.16,1.22,1.22,0,0,1,1.31,1.17c0,.12,0,.24,0,.36,0,1.52,0,1.52,1.51,1.52,2.4,0,4.81,0,7.22,0,.76,0,1.8.34,2.2-.14s.11-1.47.14-2.24a11.15,11.15,0,0,0-.72-4.35,9.91,9.91,0,0,0-3.13-4.26,14.66,14.66,0,0,1-.45,3.12,8.61,8.61,0,0,1-1.91,3.46,1.4,1.4,0,0,1-1.52.47,1.28,1.28,0,0,1-.85-1.23A3.37,3.37,0,0,0,93,91.09c-1.35-.83-1.4-1.63-.15-2.59A24.15,24.15,0,0,0,95.55,86c.33-.35.34-.54-.11-.78a5.48,5.48,0,0,1-1.07-.79,1.17,1.17,0,0,1-.12-1.68,1.09,1.09,0,0,1,1.58-.31c1.48,1.11,3.26,1.69,4.74,2.78a12.52,12.52,0,0,1,5.37,10,25.43,25.43,0,0,1,0,2.76c0,.71.21.82.85.81,4.07,0,8.14,0,12.2,0a1.5,1.5,0,0,1,1.62,1,1.42,1.42,0,0,1-1.16,1.84,4.33,4.33,0,0,1-.72,0H63.61c-1.17,0-1.77-.39-1.88-1.21-.13-1,.49-1.62,1.62-1.62,4,0,8,0,11.94,0,.73,0,.95-.16.91-.91a15.76,15.76,0,0,1,1.22-7.64A13.07,13.07,0,0,1,83.67,84a16.71,16.71,0,0,0,2.46-1.42,1.27,1.27,0,1,1,1.52,2l-.07,0-1.1.84c.32.39.62.78,1,1.15a18.08,18.08,0,0,0,2.24,2c1,.79,1,1.7-.16,2.39a3.44,3.44,0,0,0-2,2.74,1.22,1.22,0,0,1-.92,1.09,1.28,1.28,0,0,1-1.36-.45,8.51,8.51,0,0,1-2.29-5C82.86,88.9,82.82,88.32,82.74,87.62Z"/><path class="cls-2" d="M74.94,69.55c0-.86,0-1.72,0-2.58a1.94,1.94,0,0,1,1.7-2.14c.5-.13.53-.49.67-.83a14.55,14.55,0,0,1,11.13-9.09,14.27,14.27,0,0,1,16,8.91,1.33,1.33,0,0,0,1.19,1,1.88,1.88,0,0,1,1.66,2c.06,1.86.06,3.74,0,5.61a1.9,1.9,0,0,1-1.76,2c-.55.1-.45.46-.51.78a5.2,5.2,0,0,1-5.79,4.46c-.92-.07-1.4-.51-1.4-1.27s.54-1.25,1.49-1.26c1.89,0,2.75-.6,3.15-2.1.1-.38.12-.56-.38-.62a1.61,1.61,0,0,1-1.52-1.5,28.45,28.45,0,0,1,0-6.65,1.47,1.47,0,0,1,1-1.3c.62-.21.46-.52.26-.91-2.22-4.35-5.67-6.88-10.64-6.89s-8.71,2.44-11.09,6.86c-.26.47-.27.67.34.84a2,2,0,0,1,1.4,2.15c.06,1.72.07,3.44,0,5.16S81,74.5,79.39,74.5c-.72,0-1.43,0-2.14,0a2,2,0,0,1-2.31-2.19s0-.11,0-.17V69.55Z"/><path class="cls-2" d="M99.71,69.63A12.91,12.91,0,0,1,98.48,75a1.26,1.26,0,1,1-2.32-1,16.83,16.83,0,0,0,1-3.48,6.76,6.76,0,0,0-4.42-7.21,6.12,6.12,0,0,0-7.46,4.47,7.93,7.93,0,0,0,.15,4.37,12.13,12.13,0,0,0,3.19,5.65A3.31,3.31,0,0,0,92,78.84a1.14,1.14,0,0,1,1.45.86,1.16,1.16,0,0,1-.78,1.57,5.39,5.39,0,0,1-5.3-1.22,14.35,14.35,0,0,1-4.57-7.93,9.45,9.45,0,0,1,.78-6.9,8.57,8.57,0,0,1,8.94-4.6,9.08,9.08,0,0,1,7,7A10,10,0,0,1,99.71,69.63Z"/><path class="cls-2" d="M56.68,101.56c-.39,0-.78,0-1.16,0a1.4,1.4,0,0,1-1.32-1.49,1.37,1.37,0,0,1,1.39-1.32q1.11,0,2.22,0a1.38,1.38,0,0,1,1.42,1.38,1.43,1.43,0,0,1-1.4,1.43C57.45,101.59,57.06,101.56,56.68,101.56Z"/><path class="cls-2" d="M126.1,98.74h1a1.45,1.45,0,0,1,1.46,1.38,1.47,1.47,0,0,1-1.41,1.44c-.74,0-1.48,0-2.22,0a1.41,1.41,0,0,1,0-2.82Z"/><path class="cls-2" d="M96.83,77.8a1.32,1.32,0,0,1-1.32,1.28c-1.21,0-2.08-.67-2-1.53a1.3,1.3,0,0,1,1.28-1.22C96,76.36,96.84,76.94,96.83,77.8Z"/><path class="cls-2" d="M89.83,93.48a1.25,1.25,0,0,1,1.28-1.38,1.28,1.28,0,0,1,1.27,1.4A1.35,1.35,0,0,1,91,95,1.34,1.34,0,0,1,89.83,93.48Z"/></g></g></svg>