<svg xmlns="http://www.w3.org/2000/svg" viewBox="0 0 182.48 182.48"><defs><style>.cls-1{fill:#fff;stroke:#8fc640;stroke-miterlimit:10;stroke-width:4.59px;}.cls-2{fill:#8fc640;}</style></defs><g id="Layer_2" data-name="Layer 2"><g id="Layer_1-2" data-name="Layer 1"><circle class="cls-1" cx="91.24" cy="91.24" r="88.94"/><path class="cls-2" d="M32.94,76.29a5.09,5.09,0,0,1,1.76-2.22,3.65,3.65,0,0,1,5.49,2.39,6.76,6.76,0,0,1,.13,1.27v35.74a3.89,3.89,0,0,1-1.87,3.71,3.67,3.67,0,0,1-5.09-1.46c-.15-.27-.14-.61-.42-.81Z"/><path class="cls-2" d="M76.13,139.74a5.44,5.44,0,0,1-2-1.38c-1.18-1.5-1.21-6.72,0-8.23a3.61,3.61,0,0,1,3.83-1.3,3.53,3.53,0,0,1,2.7,3.17,30,30,0,0,1,0,4.13,3.77,3.77,0,0,1-3,3.61Z"/><path class="cls-2" d="M77.68,51.47c2.32.89,3,1.9,3,4.46,0,1.12,0,2.24-.08,3.36A3.56,3.56,0,0,1,77,62.5a3.6,3.6,0,0,1-3.62-3.21,28.31,28.31,0,0,1,0-4.22,3.74,3.74,0,0,1,3-3.6Z"/><path class="cls-2" d="M73.3,95.52q0-10.72,0-21.46a3.85,3.85,0,0,1,2.24-3.91,3.64,3.64,0,0,1,5.09,3,8.77,8.77,0,0,1,.06,1q0,21.45,0,42.91c0,1.78-.54,3.23-2.24,4a3.64,3.64,0,0,1-5.09-3q-.06-.6-.06-1.2Q73.29,106.2,73.3,95.52Z"/><path class="cls-2" d="M121,95.65q0,9.18,0,18.36a3.67,3.67,0,0,1-7,1.61,4.23,4.23,0,0,1-.41-1.92q0-18.11,0-36.2a3.75,3.75,0,0,1,3.21-4,3.68,3.68,0,0,1,4.06,2.81,5.45,5.45,0,0,1,.1,1.28Z"/><path class="cls-2" d="M67.85,95.61c0,4.79,0,9.58,0,14.38a3.72,3.72,0,0,1-3.09,4,3.64,3.64,0,0,1-4.27-3.4c-.05-1.49,0-3,0-4.48q0-12.53,0-25.06a3.63,3.63,0,0,1,2.75-3.67,3.69,3.69,0,0,1,4.61,3.81c0,3.9,0,7.81,0,11.71Z"/><path class="cls-2" d="M93.51,95.64c0,4.79-.05,9.59,0,14.38a3.8,3.8,0,0,1-3.71,4,3.72,3.72,0,0,1-3.69-3.93q0-14.47,0-28.93a3.69,3.69,0,0,1,7.28-1.09,5.35,5.35,0,0,1,.09,1.2Z"/><path class="cls-2" d="M55,95.69v7.07a3.69,3.69,0,1,1-7.37,0c0-4.2,0-8.39,0-12.58a12.65,12.65,0,0,1,.12-2.75,3.66,3.66,0,0,1,7.25.72C55,90.69,55,93.19,55,95.69Z"/><path class="cls-2" d="M99,95.61c0-2.39,0-4.77,0-7.16a3.68,3.68,0,1,1,7.36,0c0,4,0,8,0,12,0,.84,0,1.67,0,2.5a3.7,3.7,0,0,1-3.85,3.75A3.65,3.65,0,0,1,99,102.76C99,100.37,99,98,99,95.61Z"/><path class="cls-2" d="M146.2,53.65h-7.57V46.08a3.34,3.34,0,1,0-6.67,0v7.57h-7.58A3.33,3.33,0,0,0,121.05,57h0a3.33,3.33,0,0,0,3.33,3.34H132v7.57a3.34,3.34,0,1,0,6.67,0V60.32h7.57A3.34,3.34,0,0,0,149.54,57h0A3.34,3.34,0,0,0,146.2,53.65Z"/></g></g></svg>