<svg xmlns="http://www.w3.org/2000/svg" viewBox="0 0 182.48 182.48"><defs><style
    >.cls-1{fill:#fff;stroke:#8fc640;stroke-miterlimit:10;stroke-width:4.59px;}.cls-2{fill:#8fc640;}</style></defs><g
    id="Layer_2"
    data-name="Layer 2"
  ><g id="Layer_1-2" data-name="Layer 1"><circle
        class="cls-1"
        cx="91.24"
        cy="91.24"
        r="88.94"
      /><path
        class="cls-2"
        d="M39.3,68.47a6,6,0,0,1,2.07-2.63,4.31,4.31,0,0,1,6.48,2.82A7.65,7.65,0,0,1,48,70.17q0,21.08,0,42.14a4.6,4.6,0,0,1-2.21,4.37,4.32,4.32,0,0,1-6-1.72c-.17-.32-.16-.72-.49-.95Z"
      /><path
        class="cls-2"
        d="M90.22,143.28a6.6,6.6,0,0,1-2.37-1.62c-1.39-1.77-1.43-7.93,0-9.71a4.25,4.25,0,0,1,4.51-1.53,4.17,4.17,0,0,1,3.19,3.74,34.42,34.42,0,0,1,0,4.87c-.09,2.29-1.43,3.59-3.51,4.25Z"
      /><path
        class="cls-2"
        d="M92.05,39.2c2.74,1,3.55,2.24,3.54,5.26,0,1.32,0,2.64-.09,4a4.29,4.29,0,0,1-8.53,0,33,33,0,0,1,0-5c.09-2.29,1.43-3.59,3.51-4.25Z"
      /><path
        class="cls-2"
        d="M86.88,91.14q0-12.66,0-25.3c0-2.07.69-3.73,2.65-4.61a4.29,4.29,0,0,1,6,3.5c0,.4.07.81.07,1.21q0,25.31,0,50.6c0,2.1-.64,3.8-2.65,4.71a4.29,4.29,0,0,1-6-3.5c0-.47-.07-.94-.08-1.41Z"
      /><path
        class="cls-2"
        d="M143.18,91.29c0,7.22,0,14.43,0,21.65a4.32,4.32,0,0,1-3.39,4.24,4.37,4.37,0,0,1-4.82-2.34,5,5,0,0,1-.48-2.26q0-21.35,0-42.68a4.43,4.43,0,0,1,3.79-4.66,4.33,4.33,0,0,1,4.79,3.3,6.37,6.37,0,0,1,.11,1.51Q143.19,80.67,143.18,91.29Z"
      /><path
        class="cls-2"
        d="M80.46,91.24c0,5.65,0,11.31,0,17a4.38,4.38,0,0,1-3.65,4.66,4.29,4.29,0,0,1-5-4c0-1.76,0-3.52,0-5.28V74A4.3,4.3,0,0,1,75,69.69a4.36,4.36,0,0,1,5.43,4.49c0,4.61,0,9.21,0,13.81Z"
      /><path
        class="cls-2"
        d="M110.72,91.28c0,5.65-.06,11.31,0,17a4.47,4.47,0,0,1-4.38,4.71,4.4,4.4,0,0,1-4.35-4.64q0-17.06,0-34.12a4.44,4.44,0,0,1,4-4.65,4.38,4.38,0,0,1,4.56,3.38,5.93,5.93,0,0,1,.1,1.4Q110.73,82.81,110.72,91.28Z"
      /><path
        class="cls-2"
        d="M65.27,91.34c0,2.78,0,5.56,0,8.33a4.35,4.35,0,1,1-8.69,0c0-4.94,0-9.89,0-14.83a14.64,14.64,0,0,1,.13-3.24,4.32,4.32,0,0,1,8.55.85C65.28,85.45,65.27,88.4,65.27,91.34Z"
      /><path
        class="cls-2"
        d="M117.21,91.24c0-2.81,0-5.62,0-8.43a4.35,4.35,0,1,1,8.69-.06c0,4.71,0,9.42,0,14.13,0,1,0,2,0,2.94a4.35,4.35,0,1,1-8.69-.15C117.2,96.86,117.21,94.05,117.21,91.24Z"
      /></g></g></svg>
